<svg id="svg" version="1.1" xmlns="http://www.w3.org/2000/svg" xmlns:xlink="http://www.w3.org/1999/xlink" width="400" height="400" viewBox="0, 0, 400,400"><g id="svgg"><path id="path0" d="M278.800 87.449 C 278.800 87.980,278.909 88.008,279.400 87.600 C 279.730 87.326,280.000 87.034,280.000 86.951 C 280.000 86.868,279.730 86.800,279.400 86.800 C 279.070 86.800,278.800 87.092,278.800 87.449 M263.200 115.433 C 263.200 116.140,264.061 116.017,264.308 115.275 C 264.395 115.014,264.182 114.800,263.833 114.800 C 263.485 114.800,263.200 115.085,263.200 115.433 M347.486 123.607 C 347.600 124.043,347.942 124.400,348.247 124.400 C 349.049 124.400,348.925 123.695,348.039 123.221 C 347.392 122.875,347.310 122.932,347.486 123.607 M323.467 123.467 C 323.006 123.927,323.175 124.400,323.800 124.400 C 324.130 124.400,324.400 124.130,324.400 123.800 C 324.400 123.175,323.927 123.006,323.467 123.467 M307.867 132.667 C 307.406 133.127,307.575 133.600,308.200 133.600 C 308.530 133.600,308.800 133.330,308.800 133.000 C 308.800 132.375,308.327 132.206,307.867 132.667 M357.467 132.667 C 356.981 133.153,357.190 133.579,357.800 133.345 C 358.130 133.218,358.400 132.954,358.400 132.757 C 358.400 132.338,357.849 132.284,357.467 132.667 M355.478 134.423 C 355.302 135.098,355.365 135.161,355.831 134.774 C 356.468 134.246,356.586 133.600,356.047 133.600 C 355.852 133.600,355.596 133.970,355.478 134.423 M306.267 134.267 C 305.806 134.727,305.975 135.200,306.600 135.200 C 306.930 135.200,307.200 134.930,307.200 134.600 C 307.200 133.975,306.727 133.806,306.267 134.267 M304.667 135.867 C 304.206 136.327,304.375 136.800,305.000 136.800 C 305.330 136.800,305.600 136.530,305.600 136.200 C 305.600 135.575,305.127 135.406,304.667 135.867 M352.400 137.449 C 352.400 137.980,352.509 138.008,353.000 137.600 C 353.330 137.326,353.600 137.034,353.600 136.951 C 353.600 136.868,353.330 136.800,353.000 136.800 C 352.670 136.800,352.400 137.092,352.400 137.449 M303.067 137.467 C 302.606 137.927,302.775 138.400,303.400 138.400 C 303.730 138.400,304.000 138.130,304.000 137.800 C 304.000 137.175,303.527 137.006,303.067 137.467 M350.612 139.496 C 350.460 140.099,350.126 140.726,349.868 140.890 C 349.530 141.105,349.549 141.189,349.937 141.194 C 350.233 141.197,350.566 140.852,350.677 140.428 C 350.788 140.003,351.131 139.559,351.439 139.440 C 352.164 139.162,352.167 138.400,351.443 138.400 C 351.137 138.400,350.763 138.893,350.612 139.496 M93.800 177.076 C 93.360 177.197,92.645 177.545,92.211 177.848 C 91.777 178.152,91.089 178.400,90.682 178.400 C 87.631 178.400,78.400 187.148,78.400 190.040 C 78.400 190.313,78.125 190.841,77.789 191.213 C 75.899 193.300,75.925 206.329,77.823 208.426 C 78.140 208.776,78.400 209.287,78.400 209.560 C 78.400 211.028,83.279 217.018,85.842 218.696 C 90.474 221.730,97.480 223.619,101.300 222.865 C 108.591 221.425,112.347 219.518,116.333 215.233 C 117.898 213.549,120.000 210.530,120.000 209.964 C 120.000 209.746,120.400 208.810,120.888 207.884 C 121.698 206.348,121.776 205.639,121.776 199.800 C 121.776 193.961,121.698 193.252,120.888 191.716 C 120.400 190.790,120.000 189.854,120.000 189.636 C 120.000 187.032,110.526 178.400,107.668 178.400 C 107.288 178.400,106.533 178.085,105.989 177.700 C 104.989 176.992,95.809 176.522,93.800 177.076 M165.800 177.440 C 164.920 177.773,163.750 178.192,163.200 178.371 C 161.549 178.909,158.622 180.519,158.280 181.078 C 158.104 181.365,157.800 181.600,157.604 181.600 C 157.138 181.600,153.600 185.089,153.600 185.549 C 153.600 185.743,153.302 186.149,152.938 186.451 C 152.574 186.753,152.031 187.540,151.732 188.200 C 151.433 188.860,151.026 189.670,150.827 190.000 C 148.174 194.413,148.186 205.410,150.848 209.600 C 151.058 209.930,151.442 210.695,151.702 211.300 C 151.962 211.905,152.311 212.400,152.477 212.400 C 152.644 212.400,153.036 212.895,153.350 213.500 C 156.159 218.918,167.604 224.145,173.831 222.853 C 181.563 221.249,186.067 218.854,189.454 214.547 C 190.084 213.745,190.801 212.880,191.047 212.626 C 191.293 212.371,191.633 211.721,191.802 211.181 C 191.972 210.642,192.445 209.771,192.855 209.246 C 193.265 208.721,193.601 207.821,193.602 207.246 C 193.604 206.671,193.901 205.660,194.262 205.000 C 195.194 203.297,195.195 196.315,194.264 194.520 C 193.899 193.816,193.600 192.880,193.600 192.441 C 193.600 191.005,190.580 185.914,188.351 183.593 C 187.608 182.820,186.100 181.609,185.000 180.904 C 183.900 180.198,182.799 179.451,182.553 179.244 C 182.306 179.036,181.496 178.683,180.753 178.458 C 180.009 178.233,178.680 177.775,177.800 177.442 C 175.613 176.612,167.992 176.611,165.800 177.440 M109.481 182.306 C 118.644 187.416,119.333 198.276,110.524 198.735 C 106.835 198.927,100.000 195.435,100.000 193.357 C 100.000 193.189,99.655 192.680,99.234 192.226 C 98.168 191.078,97.560 187.442,98.049 185.149 C 98.933 181.005,104.616 179.592,109.481 182.306 M181.200 181.796 C 181.530 182.076,182.178 182.420,182.639 182.560 C 187.401 184.007,191.115 192.904,188.375 196.302 C 182.256 203.890,165.981 192.188,171.139 183.909 C 172.902 181.079,178.879 179.823,181.200 181.796 M329.500 240.733 C 330.298 241.569,330.609 241.521,330.262 240.617 C 330.132 240.278,329.749 240.000,329.413 240.000 C 328.894 240.000,328.908 240.113,329.500 240.733 M66.075 247.625 C 66.171 247.914,66.486 248.229,66.775 248.325 C 67.075 248.425,67.225 248.275,67.125 247.975 C 67.029 247.686,66.714 247.371,66.425 247.275 C 66.125 247.175,65.975 247.325,66.075 247.625 M211.600 247.810 C 211.600 248.145,211.150 248.591,210.600 248.800 C 210.050 249.009,209.600 249.365,209.600 249.590 C 209.600 249.816,209.344 250.000,209.031 250.000 C 208.718 250.000,207.927 250.450,207.273 251.000 C 206.619 251.550,205.894 252.000,205.662 252.000 C 205.430 252.000,205.096 252.248,204.920 252.550 C 204.744 252.853,203.610 253.609,202.400 254.230 C 201.190 254.851,200.104 255.496,199.986 255.664 C 199.868 255.832,199.148 256.249,198.386 256.590 C 197.624 256.932,196.730 257.381,196.400 257.587 C 195.189 258.343,188.864 261.200,188.401 261.200 C 188.138 261.200,187.446 261.456,186.862 261.768 C 185.698 262.391,182.910 263.352,179.800 264.204 C 178.700 264.505,177.080 265.024,176.200 265.358 C 175.320 265.692,174.150 265.975,173.600 265.987 C 173.050 265.999,171.790 266.254,170.800 266.554 C 169.810 266.854,167.830 267.231,166.400 267.391 C 164.970 267.551,162.874 267.919,161.743 268.208 C 155.517 269.799,125.708 269.810,118.600 268.224 C 117.280 267.929,115.120 267.569,113.800 267.422 C 112.480 267.276,110.500 266.912,109.400 266.614 C 108.300 266.315,106.590 265.944,105.600 265.788 C 104.610 265.633,103.350 265.282,102.800 265.008 C 102.250 264.735,101.022 264.392,100.072 264.246 C 99.121 264.101,97.951 263.736,97.472 263.436 C 96.992 263.135,95.889 262.765,95.020 262.612 C 94.152 262.459,93.077 262.079,92.631 261.767 C 92.186 261.455,91.567 261.200,91.255 261.200 C 90.943 261.200,89.858 260.819,88.844 260.353 C 85.041 258.606,79.393 255.828,79.200 255.610 C 79.090 255.485,78.469 255.150,77.820 254.864 C 76.447 254.259,70.162 250.146,69.025 249.108 C 68.179 248.336,67.879 248.254,67.454 248.679 C 67.092 249.041,69.246 250.954,74.049 254.537 C 77.108 256.820,85.002 261.161,89.800 263.200 C 90.900 263.667,92.340 264.291,93.000 264.586 C 94.600 265.301,97.736 266.338,100.227 266.975 C 101.342 267.261,102.602 267.680,103.027 267.908 C 103.452 268.135,104.700 268.451,105.800 268.610 C 106.900 268.769,108.372 269.132,109.071 269.417 C 109.771 269.702,111.391 270.049,112.671 270.188 C 113.952 270.328,116.170 270.693,117.600 270.999 C 129.322 273.514,160.688 272.643,170.375 269.535 C 171.132 269.292,172.752 268.857,173.975 268.568 C 177.521 267.730,181.332 266.605,182.200 266.140 C 182.640 265.904,183.540 265.585,184.200 265.432 C 184.860 265.279,186.210 264.786,187.200 264.338 C 188.190 263.890,189.540 263.289,190.200 263.002 C 194.150 261.287,199.299 258.477,202.640 256.214 C 206.886 253.337,212.902 248.089,212.570 247.552 C 212.219 246.984,211.600 247.148,211.600 247.810 M334.300 257.933 C 335.120 258.792,335.317 258.769,334.967 257.857 C 334.828 257.496,334.464 257.200,334.157 257.200 C 333.733 257.200,333.767 257.375,334.300 257.933 M287.043 262.169 C 287.407 263.115,288.400 263.275,288.400 262.387 C 288.400 261.871,288.129 261.600,287.613 261.600 C 287.096 261.600,286.900 261.796,287.043 262.169 M338.400 268.953 C 338.400 269.258,338.757 269.600,339.193 269.714 C 339.868 269.890,339.925 269.808,339.579 269.161 C 339.105 268.275,338.400 268.151,338.400 268.953 M340.000 271.930 C 340.000 272.368,340.346 272.797,340.793 272.914 C 341.460 273.089,341.523 273.004,341.191 272.383 C 340.600 271.279,340.000 271.050,340.000 271.930 M344.400 279.766 C 344.400 280.063,344.747 280.397,345.170 280.508 C 345.692 280.645,345.875 280.541,345.739 280.186 C 345.454 279.443,344.400 279.113,344.400 279.766 M349.200 286.200 C 349.200 286.530,349.464 286.800,349.787 286.800 C 350.145 286.800,350.285 286.565,350.145 286.200 C 350.018 285.870,349.754 285.600,349.557 285.600 C 349.361 285.600,349.200 285.870,349.200 286.200 M301.425 287.228 C 302.257 288.146,302.400 288.179,302.400 287.447 C 302.400 287.142,302.023 286.795,301.563 286.674 C 300.760 286.464,300.755 286.487,301.425 287.228 M248.254 287.112 C 248.119 287.331,248.277 287.732,248.604 288.004 C 249.255 288.543,249.391 288.120,248.844 287.257 C 248.635 286.928,248.404 286.871,248.254 287.112 M187.043 296.569 C 187.407 297.515,188.400 297.675,188.400 296.787 C 188.400 296.271,188.129 296.000,187.613 296.000 C 187.096 296.000,186.900 296.196,187.043 296.569 M191.600 299.586 C 191.600 299.798,191.987 300.179,192.461 300.432 C 193.204 300.830,193.286 300.800,193.061 300.214 C 192.917 299.840,192.800 299.459,192.800 299.367 C 192.800 299.275,192.530 299.200,192.200 299.200 C 191.870 299.200,191.600 299.374,191.600 299.586 M315.200 299.351 C 315.200 299.434,315.470 299.726,315.800 300.000 C 316.291 300.408,316.400 300.380,316.400 299.849 C 316.400 299.492,316.130 299.200,315.800 299.200 C 315.470 299.200,315.200 299.268,315.200 299.351 M355.478 300.023 C 355.302 300.698,355.365 300.761,355.831 300.374 C 356.468 299.846,356.586 299.200,356.047 299.200 C 355.852 299.200,355.596 299.570,355.478 300.023 M318.244 301.371 C 318.528 302.110,319.745 302.235,319.500 301.500 C 319.409 301.225,319.034 300.942,318.668 300.871 C 318.204 300.781,318.076 300.932,318.244 301.371 M352.400 301.433 C 352.400 301.782,352.614 301.995,352.875 301.908 C 353.617 301.661,353.740 300.800,353.033 300.800 C 352.685 300.800,352.400 301.085,352.400 301.433 M258.400 309.186 C 258.400 309.398,258.787 309.779,259.261 310.032 C 260.004 310.430,260.086 310.400,259.861 309.814 C 259.717 309.440,259.600 309.059,259.600 308.967 C 259.600 308.875,259.330 308.800,259.000 308.800 C 258.670 308.800,258.400 308.974,258.400 309.186 M221.600 313.586 C 221.600 313.798,221.942 314.155,222.361 314.379 C 223.008 314.725,223.090 314.668,222.914 313.993 C 222.707 313.200,221.600 312.857,221.600 313.586 " stroke="none" fill="#090807" fill-rule="evenodd"></path><path id="path1" d="M90.725 163.008 C 90.611 163.122,89.127 163.482,87.427 163.807 C 85.728 164.132,83.951 164.669,83.480 164.999 C 83.008 165.330,82.347 165.606,82.011 165.613 C 80.217 165.649,73.015 170.274,69.938 173.366 C 66.422 176.897,64.483 179.692,61.911 184.933 C 58.075 192.752,58.082 207.284,61.926 214.655 C 62.139 215.065,62.523 215.850,62.778 216.400 C 65.008 221.211,70.190 227.132,74.823 230.163 C 75.800 230.802,77.053 231.632,77.608 232.006 C 78.162 232.381,79.062 232.825,79.608 232.993 C 80.153 233.161,80.780 233.440,81.000 233.613 C 83.412 235.510,93.476 237.004,99.600 236.374 C 118.348 234.444,132.819 218.380,132.795 199.526 C 132.789 194.692,130.896 187.082,128.708 183.093 C 123.868 174.271,118.698 169.700,108.200 164.961 C 104.823 163.437,91.757 161.977,90.725 163.008 M168.000 163.478 C 143.748 168.970,131.574 193.936,142.261 216.260 C 145.029 222.042,152.167 229.724,156.535 231.622 C 157.011 231.829,157.670 232.167,158.000 232.374 C 171.604 240.889,194.286 236.093,204.218 222.600 C 204.865 221.720,205.502 220.910,205.632 220.800 C 205.762 220.690,206.570 219.340,207.427 217.800 C 215.347 203.572,213.150 185.884,202.050 174.506 C 192.872 165.099,179.693 160.831,168.000 163.478 M107.049 176.910 C 107.682 177.248,109.280 178.036,110.600 178.662 C 113.067 179.832,119.200 185.412,119.200 186.487 C 119.200 186.781,119.560 187.330,120.000 187.707 C 120.440 188.084,120.800 188.714,120.800 189.107 C 120.800 189.500,121.055 190.187,121.368 190.632 C 121.680 191.078,122.124 192.333,122.355 193.421 C 122.586 194.510,122.994 196.331,123.260 197.469 C 123.627 199.034,123.636 200.056,123.297 201.669 C 123.051 202.841,122.646 204.771,122.396 205.958 C 122.147 207.144,121.704 208.494,121.413 208.958 C 121.122 209.421,120.751 210.250,120.588 210.800 C 120.198 212.122,116.867 216.291,114.994 217.800 C 114.175 218.460,113.050 219.405,112.494 219.900 C 111.938 220.395,111.209 220.800,110.873 220.800 C 110.538 220.800,109.979 221.043,109.631 221.339 C 106.040 224.406,92.360 224.406,88.769 221.339 C 88.421 221.043,87.981 220.800,87.790 220.800 C 86.698 220.800,79.600 214.552,79.600 213.591 C 79.600 213.407,79.368 213.019,79.084 212.729 C 78.214 211.838,76.768 208.718,76.150 206.400 C 75.828 205.190,75.397 203.570,75.192 202.800 C 74.596 200.562,74.739 197.894,75.600 195.200 C 76.040 193.823,76.400 192.449,76.400 192.146 C 76.400 191.844,76.760 190.925,77.200 190.104 C 77.640 189.284,78.000 188.379,78.000 188.093 C 78.000 187.808,78.254 187.478,78.564 187.359 C 78.874 187.239,79.233 186.724,79.361 186.213 C 79.653 185.048,85.357 179.676,86.644 179.353 C 87.170 179.221,87.600 178.967,87.600 178.788 C 87.600 178.609,88.275 178.245,89.100 177.979 C 89.925 177.713,90.845 177.300,91.145 177.061 C 92.622 175.885,104.912 175.768,107.049 176.910 M179.528 176.932 C 179.898 177.265,180.740 177.666,181.400 177.823 C 182.060 177.979,182.870 178.332,183.200 178.606 C 183.530 178.881,184.162 179.215,184.605 179.350 C 186.250 179.848,191.952 185.957,192.559 187.872 C 192.709 188.342,193.094 188.946,193.415 189.213 C 193.737 189.480,194.000 190.084,194.000 190.555 C 194.000 191.026,194.360 192.084,194.800 192.904 C 195.797 194.764,195.984 204.254,195.059 206.027 C 194.765 206.591,194.394 207.570,194.235 208.203 C 193.474 211.235,188.400 217.876,185.730 219.333 C 185.329 219.552,184.910 219.858,184.800 220.012 C 184.538 220.379,180.241 222.400,179.723 222.400 C 179.503 222.400,178.743 222.689,178.034 223.043 C 177.059 223.529,175.541 223.686,171.800 223.686 C 168.059 223.686,166.541 223.529,165.566 223.043 C 164.857 222.689,164.097 222.400,163.877 222.400 C 162.184 222.400,156.103 218.415,154.021 215.942 C 151.972 213.507,151.200 212.453,151.200 212.091 C 151.200 211.875,150.942 211.483,150.626 211.221 C 150.310 210.959,149.926 210.175,149.773 209.478 C 149.620 208.782,149.204 207.767,148.848 207.223 C 147.858 205.713,147.900 193.823,148.900 192.296 C 149.285 191.709,149.600 190.995,149.600 190.711 C 149.600 190.087,151.408 186.628,152.230 185.679 C 152.863 184.949,156.605 181.150,157.611 180.215 C 157.947 179.903,158.667 179.458,159.211 179.225 C 159.755 178.992,160.470 178.648,160.800 178.460 C 164.543 176.324,166.294 176.006,173.328 176.186 C 177.550 176.294,179.015 176.470,179.528 176.932 M101.683 182.243 C 96.999 184.637,97.904 191.449,103.438 195.437 C 113.409 202.625,120.545 193.422,111.601 184.912 C 110.611 183.970,109.526 183.200,109.190 183.200 C 108.853 183.200,108.181 182.922,107.696 182.582 C 106.327 181.623,103.237 181.449,101.683 182.243 M173.835 182.587 C 170.759 184.476,170.427 189.517,173.188 192.419 C 173.525 192.773,174.179 193.499,174.643 194.031 C 175.964 195.549,176.980 196.265,178.543 196.781 C 179.338 197.044,180.092 197.425,180.218 197.629 C 180.344 197.833,181.434 198.000,182.640 198.000 C 188.978 198.000,190.654 191.142,185.536 186.154 C 184.659 185.299,183.645 184.285,183.282 183.900 C 182.919 183.515,182.412 183.200,182.155 183.200 C 181.898 183.200,180.903 182.844,179.944 182.409 C 177.632 181.360,175.742 181.415,173.835 182.587 " stroke="none" fill="#faf8f6" fill-rule="evenodd"></path><path id="path2" d="M257.500 80.822 C 256.895 80.992,256.400 81.022,256.400 80.889 C 256.400 80.756,256.175 80.934,255.900 81.286 C 255.525 81.765,254.465 81.965,251.649 82.088 C 248.781 82.213,247.786 82.404,247.422 82.902 C 247.070 83.384,246.192 83.575,244.053 83.638 C 241.812 83.703,241.049 83.881,240.668 84.425 C 240.306 84.941,239.491 85.164,237.588 85.267 C 235.600 85.374,235.009 85.545,235.039 86.003 C 235.062 86.365,234.694 86.624,234.103 86.660 C 231.544 86.817,229.533 87.310,229.334 87.828 C 229.205 88.163,228.572 88.400,227.806 88.400 C 226.457 88.400,225.380 89.206,225.903 89.824 C 226.067 90.016,225.850 89.910,225.423 89.587 C 224.937 89.220,224.759 89.187,224.947 89.500 C 225.164 89.862,224.863 90.000,223.856 90.000 C 222.072 90.000,221.200 90.342,221.200 91.043 C 221.200 91.424,220.705 91.600,219.629 91.600 C 218.493 91.600,218.023 91.781,217.929 92.256 C 217.816 92.830,216.991 93.114,214.917 93.292 C 214.652 93.315,214.349 93.556,214.244 93.829 C 214.140 94.102,213.504 94.445,212.832 94.593 C 212.159 94.741,211.519 95.008,211.408 95.187 C 211.297 95.367,210.025 96.083,208.582 96.779 C 207.139 97.475,205.864 98.288,205.750 98.586 C 205.557 99.090,203.779 99.814,203.100 99.666 C 202.935 99.630,202.800 99.870,202.800 100.200 C 202.800 100.530,202.540 100.800,202.223 100.800 C 201.905 100.800,201.381 101.178,201.058 101.639 C 200.412 102.561,200.501 102.551,193.400 102.454 C 190.486 102.414,188.817 102.251,189.151 102.039 C 189.934 101.543,189.336 100.800,188.153 100.800 C 187.603 100.800,187.257 100.968,187.384 101.174 C 187.527 101.405,187.113 101.403,186.308 101.169 C 184.185 100.554,155.488 100.730,155.728 101.357 C 155.836 101.637,155.679 101.867,155.379 101.867 C 155.080 101.867,154.928 101.717,155.041 101.533 C 155.155 101.350,155.076 101.200,154.866 101.200 C 154.657 101.200,154.384 101.464,154.260 101.787 C 154.085 102.245,153.043 102.398,149.518 102.487 C 145.500 102.587,145.006 102.677,145.056 103.300 C 145.105 103.921,140.494 104.422,138.272 104.038 C 138.091 104.007,137.641 104.340,137.272 104.779 C 136.771 105.373,136.039 105.597,134.400 105.658 C 132.831 105.716,132.011 105.952,131.541 106.483 C 131.086 106.997,130.297 107.239,128.993 107.265 C 127.676 107.292,126.909 107.530,126.463 108.052 C 126.025 108.563,125.288 108.800,124.135 108.800 C 123.207 108.800,122.337 108.978,122.203 109.195 C 122.062 109.423,122.224 109.489,122.584 109.351 C 123.023 109.182,123.141 109.289,122.980 109.707 C 122.829 110.100,122.317 110.265,121.476 110.190 C 120.569 110.109,119.987 110.325,119.463 110.938 C 118.990 111.491,118.797 111.573,118.925 111.167 C 119.041 110.795,118.892 110.533,118.562 110.533 C 118.253 110.533,118.000 110.773,118.000 111.067 C 118.000 111.360,117.685 111.621,117.300 111.646 C 115.562 111.761,114.000 112.320,114.000 112.827 C 114.000 113.032,113.615 113.200,113.144 113.200 C 112.673 113.200,112.030 113.515,111.714 113.900 C 111.374 114.316,111.262 114.356,111.439 114.000 C 111.660 113.555,111.531 113.581,110.937 114.100 C 110.497 114.485,109.909 114.800,109.630 114.800 C 109.352 114.800,108.616 115.161,107.995 115.603 C 107.375 116.045,106.312 116.518,105.634 116.653 C 104.955 116.789,104.400 117.052,104.400 117.237 C 104.400 117.423,104.700 117.460,105.066 117.319 C 105.520 117.145,105.637 117.216,105.435 117.543 C 105.273 117.806,104.928 117.995,104.670 117.963 C 103.141 117.775,102.400 118.048,102.400 118.800 C 102.400 119.415,102.133 119.600,101.249 119.600 C 100.519 119.600,99.891 119.911,99.533 120.450 C 99.178 120.984,98.547 121.300,97.834 121.300 C 97.061 121.300,96.636 121.539,96.503 122.050 C 96.395 122.463,96.101 122.800,95.850 122.800 C 95.598 122.800,95.168 123.160,94.893 123.600 C 94.618 124.040,94.125 124.400,93.797 124.400 C 93.468 124.400,93.197 124.625,93.194 124.900 C 93.190 125.233,93.058 125.200,92.800 124.800 C 92.518 124.364,92.411 124.343,92.406 124.724 C 92.403 125.012,92.220 125.136,92.000 125.000 C 91.780 124.864,91.600 125.033,91.600 125.376 C 91.600 125.733,91.258 126.000,90.800 126.000 C 90.259 126.000,90.000 126.267,90.000 126.824 C 90.000 127.277,89.846 127.552,89.658 127.436 C 89.233 127.173,86.800 129.301,86.800 129.936 C 86.800 130.534,86.131 130.536,85.762 129.938 C 85.573 129.633,85.654 129.586,86.000 129.800 C 86.358 130.021,86.427 129.968,86.220 129.632 C 85.876 129.077,84.400 130.390,84.400 131.250 C 84.400 131.516,84.286 131.619,84.147 131.480 C 84.007 131.341,83.269 131.851,82.507 132.613 C 81.744 133.376,80.958 134.000,80.760 134.000 C 80.562 134.000,80.400 134.249,80.400 134.553 C 80.400 134.858,80.022 135.206,79.560 135.326 C 79.063 135.456,78.834 135.732,79.000 136.000 C 79.166 136.268,78.937 136.544,78.440 136.674 C 77.978 136.794,77.600 137.052,77.600 137.247 C 77.600 137.441,77.319 137.600,76.976 137.600 C 76.633 137.600,76.448 137.754,76.564 137.942 C 76.680 138.129,76.326 138.487,75.778 138.737 C 75.155 139.021,74.692 139.642,74.541 140.396 C 74.408 141.058,74.062 141.600,73.771 141.600 C 72.999 141.600,71.200 143.382,71.200 144.146 C 71.200 144.506,71.065 144.779,70.900 144.753 C 70.010 144.612,69.600 144.887,69.600 145.624 C 69.600 146.077,69.420 146.336,69.200 146.200 C 68.980 146.064,68.800 146.154,68.800 146.400 C 68.800 146.646,68.620 146.736,68.400 146.600 C 68.180 146.464,68.000 146.723,68.000 147.176 C 68.000 147.629,67.865 147.979,67.700 147.953 C 66.870 147.822,66.400 148.060,66.400 148.613 C 66.400 148.949,66.141 149.324,65.824 149.446 C 65.508 149.567,65.133 150.193,64.992 150.837 C 64.851 151.480,64.373 152.201,63.930 152.438 C 63.422 152.709,63.196 153.140,63.317 153.604 C 63.445 154.095,63.335 154.273,62.985 154.139 C 62.697 154.028,62.271 154.294,62.038 154.729 C 61.520 155.696,64.909 156.232,65.679 155.305 C 65.909 155.027,66.335 154.800,66.625 154.800 C 66.915 154.800,68.648 154.101,70.476 153.248 C 72.304 152.394,74.250 151.560,74.800 151.394 C 75.350 151.228,76.155 150.846,76.589 150.546 C 77.023 150.246,77.649 150.000,77.981 150.000 C 78.313 150.000,79.488 149.661,80.592 149.248 C 83.620 148.113,85.076 147.642,88.800 146.590 C 94.521 144.974,96.876 144.383,99.967 143.789 C 101.598 143.475,103.488 143.046,104.167 142.837 C 104.845 142.627,106.390 142.346,107.600 142.211 C 108.810 142.077,111.420 141.714,113.400 141.405 C 125.257 139.554,142.382 139.211,156.400 140.544 C 162.812 141.154,173.428 142.646,174.039 143.024 C 174.230 143.142,175.695 143.491,177.293 143.799 C 180.852 144.485,183.606 145.186,190.400 147.133 C 191.170 147.354,193.060 148.010,194.600 148.592 C 196.140 149.174,198.015 149.806,198.767 149.998 C 199.518 150.189,200.688 150.614,201.367 150.941 C 202.045 151.268,204.491 152.352,206.803 153.348 C 209.114 154.344,211.904 155.638,213.003 156.223 C 214.101 156.807,216.080 157.843,217.400 158.524 C 218.720 159.205,220.653 160.356,221.696 161.081 C 222.739 161.806,223.746 162.400,223.934 162.400 C 224.122 162.400,224.602 162.760,225.000 163.200 C 225.398 163.640,225.888 164.000,226.089 164.000 C 226.289 164.000,227.116 164.495,227.926 165.100 C 228.736 165.705,229.579 166.329,229.800 166.487 C 236.173 171.061,250.000 185.384,250.000 187.413 C 250.000 187.496,250.438 188.210,250.974 189.000 C 251.813 190.236,253.317 193.219,255.411 197.800 C 258.717 205.034,260.290 218.856,258.634 226.118 C 258.322 227.483,257.886 229.410,257.664 230.400 C 257.238 232.301,255.939 236.167,255.298 237.442 C 255.089 237.859,254.218 239.634,253.362 241.386 C 252.507 243.139,251.400 245.172,250.903 245.904 C 250.407 246.636,250.000 247.320,250.000 247.422 C 250.000 248.131,243.854 255.674,240.729 258.800 C 234.933 264.598,230.715 268.012,223.659 272.616 C 219.807 275.129,220.139 274.946,212.910 278.538 C 204.904 282.517,203.441 283.200,202.927 283.200 C 202.673 283.200,201.955 283.453,201.332 283.762 C 200.710 284.071,199.162 284.695,197.894 285.147 C 196.625 285.600,194.645 286.310,193.494 286.726 C 191.192 287.558,188.967 288.190,185.572 288.978 C 184.346 289.263,182.996 289.681,182.572 289.908 C 182.147 290.135,180.900 290.444,179.800 290.595 C 178.700 290.746,176.810 291.114,175.600 291.414 C 171.262 292.489,163.056 293.722,157.100 294.194 C 154.018 294.439,153.600 294.563,153.600 295.236 C 153.600 295.850,153.895 296.002,155.100 296.013 C 156.530 296.025,158.228 296.839,157.773 297.294 C 157.654 297.412,159.635 297.538,162.173 297.573 C 166.379 297.631,166.766 297.576,166.527 296.953 C 166.327 296.433,166.400 296.354,166.832 296.623 C 167.811 297.233,168.816 297.223,169.056 296.599 C 169.251 296.091,170.694 296.000,178.606 296.000 C 187.751 296.000,187.963 295.981,189.863 295.005 C 191.500 294.163,192.485 293.985,196.225 293.854 C 199.081 293.753,201.066 293.486,201.825 293.100 C 202.471 292.772,204.350 292.418,206.000 292.316 C 207.660 292.212,209.572 291.832,210.280 291.464 C 211.074 291.052,212.517 290.799,214.080 290.797 C 215.922 290.795,216.923 290.581,217.800 290.000 C 218.546 289.506,219.681 289.203,220.800 289.200 C 221.919 289.197,223.054 288.894,223.800 288.400 C 224.601 287.869,225.677 287.604,227.038 287.603 C 228.566 287.601,229.257 287.400,229.800 286.800 C 230.290 286.258,231.032 286.000,232.099 286.000 C 233.068 286.000,234.065 285.692,234.691 285.200 C 235.272 284.743,236.314 284.400,237.122 284.400 C 237.900 284.400,238.821 284.145,239.169 283.833 C 239.839 283.232,242.982 282.453,246.063 282.126 C 247.111 282.014,248.285 281.593,248.747 281.164 C 249.234 280.710,250.142 280.400,250.983 280.400 C 251.867 280.400,252.701 280.099,253.200 279.600 C 253.640 279.160,254.429 278.800,254.953 278.800 C 255.570 278.800,255.981 278.518,256.116 278.000 C 256.247 277.497,256.662 277.200,257.231 277.200 C 257.729 277.200,258.508 276.885,258.962 276.500 C 259.747 275.833,259.760 275.833,259.244 276.500 C 258.778 277.102,258.793 277.200,259.351 277.200 C 259.733 277.200,260.000 276.871,260.000 276.400 C 260.000 275.743,260.269 275.599,261.500 275.594 C 262.427 275.590,262.804 275.463,262.487 275.262 C 262.023 274.968,264.398 273.876,265.300 273.969 C 265.465 273.986,266.005 273.632,266.500 273.181 C 266.995 272.731,267.671 272.116,268.003 271.813 C 268.335 271.511,269.100 271.140,269.703 270.989 C 270.306 270.837,270.800 270.483,270.800 270.201 C 270.800 269.919,271.420 269.573,272.177 269.431 C 273.035 269.270,273.647 268.883,273.798 268.407 C 273.949 267.929,274.268 267.728,274.644 267.872 C 275.037 268.023,275.325 267.807,275.471 267.252 C 275.598 266.763,276.014 266.400,276.447 266.400 C 276.861 266.400,277.200 266.211,277.200 265.981 C 277.200 265.750,277.785 265.307,278.500 264.996 C 279.215 264.686,279.575 264.424,279.300 264.416 C 279.025 264.407,278.800 264.237,278.800 264.037 C 278.800 263.838,279.160 263.769,279.600 263.884 C 280.047 264.001,280.400 263.896,280.400 263.647 C 280.400 263.401,280.760 263.200,281.200 263.200 C 281.733 263.200,282.000 262.933,282.000 262.400 C 282.000 261.867,282.267 261.600,282.800 261.600 C 283.333 261.600,283.600 261.333,283.600 260.800 C 283.600 260.267,283.867 260.000,284.400 260.000 C 284.865 260.000,285.200 259.733,285.200 259.363 C 285.200 259.012,285.560 258.631,286.000 258.516 C 286.440 258.401,286.800 258.078,286.800 257.799 C 286.800 256.810,287.846 255.365,290.655 252.471 C 292.219 250.859,294.374 248.249,295.444 246.671 C 296.513 245.092,297.616 243.562,297.894 243.271 C 298.172 242.981,298.400 242.484,298.400 242.168 C 298.400 241.851,298.760 241.284,299.200 240.907 C 299.640 240.530,300.000 239.729,300.000 239.125 C 300.000 238.438,300.299 237.868,300.800 237.600 C 301.309 237.328,301.600 236.762,301.600 236.047 C 301.600 235.429,301.960 234.507,302.400 234.000 C 302.861 233.469,303.200 232.503,303.200 231.723 C 303.200 230.978,303.560 229.662,304.000 228.800 C 305.208 226.432,305.201 208.723,303.991 206.056 C 303.556 205.097,303.200 203.506,303.200 202.519 C 303.200 201.332,302.930 200.383,302.400 199.709 C 301.943 199.128,301.600 198.086,301.600 197.278 C 301.600 196.500,301.322 195.556,300.983 195.181 C 300.643 194.806,300.256 193.802,300.122 192.950 C 299.987 192.097,299.545 190.971,299.139 190.446 C 298.732 189.921,298.400 189.088,298.400 188.595 C 298.400 188.102,298.149 187.490,297.842 187.235 C 297.535 186.980,297.170 186.166,297.031 185.426 C 296.892 184.686,296.525 183.870,296.215 183.613 C 295.905 183.355,295.538 182.630,295.400 182.000 C 295.262 181.370,294.890 180.641,294.574 180.379 C 294.258 180.117,294.000 179.678,294.000 179.405 C 294.000 179.132,293.640 178.450,293.200 177.891 C 292.760 177.331,292.400 176.615,292.400 176.299 C 292.400 175.983,292.040 175.398,291.600 175.000 C 291.160 174.602,290.800 174.001,290.800 173.664 C 290.800 173.327,290.459 172.680,290.042 172.226 C 289.026 171.119,287.600 168.376,287.600 167.530 C 287.600 167.154,287.420 166.736,287.200 166.600 C 286.980 166.464,286.800 165.903,286.800 165.353 C 286.800 164.796,286.625 164.461,286.405 164.597 C 286.178 164.737,286.111 164.577,286.247 164.221 C 286.402 163.818,286.259 163.600,285.843 163.600 C 285.467 163.600,285.200 163.268,285.200 162.800 C 285.200 162.084,284.784 161.813,283.900 161.953 C 283.735 161.979,283.600 161.584,283.600 161.075 C 283.600 160.567,283.240 159.764,282.800 159.292 C 282.360 158.820,282.000 158.257,282.000 158.040 C 282.000 157.353,281.124 157.076,280.761 157.649 C 280.521 158.029,280.410 157.796,280.406 156.900 C 280.401 155.869,280.235 155.600,279.600 155.600 C 279.067 155.600,278.800 155.333,278.800 154.800 C 278.800 154.267,278.533 154.000,278.000 154.000 C 277.439 154.000,277.198 153.731,277.194 153.100 C 277.186 151.925,276.687 151.171,275.833 151.046 C 275.455 150.991,274.923 150.508,274.650 149.973 C 274.377 149.438,273.882 149.019,273.551 149.043 C 273.184 149.069,272.959 148.757,272.974 148.243 C 272.993 147.622,272.795 147.436,272.222 147.536 C 271.522 147.657,271.502 147.599,272.022 146.961 C 272.540 146.324,272.526 146.278,271.879 146.521 C 271.446 146.683,271.256 146.633,271.403 146.395 C 271.537 146.178,271.446 146.000,271.200 146.000 C 270.954 146.000,270.864 145.821,270.999 145.602 C 271.134 145.383,270.799 145.000,270.254 144.752 C 269.668 144.485,269.350 144.076,269.474 143.750 C 269.610 143.397,269.401 143.200,268.889 143.200 C 268.430 143.200,268.005 142.862,267.884 142.400 C 267.769 141.960,267.409 141.600,267.084 141.600 C 266.759 141.600,266.399 141.240,266.284 140.800 C 266.169 140.360,265.788 140.000,265.437 140.000 C 265.067 140.000,264.800 139.665,264.800 139.200 C 264.800 138.623,264.533 138.400,263.844 138.400 C 263.180 138.400,262.906 138.187,262.944 137.700 C 262.986 137.171,262.644 136.970,261.540 136.878 C 260.227 136.769,260.055 136.619,259.822 135.378 C 259.668 134.557,259.328 134.000,258.982 134.000 C 257.817 134.000,256.830 132.542,257.173 131.327 C 257.348 130.707,257.695 130.245,257.945 130.300 C 258.195 130.355,258.379 130.265,258.353 130.100 C 258.046 128.156,258.481 125.904,259.200 125.716 C 259.824 125.553,260.000 125.170,260.000 123.980 C 260.000 122.805,260.184 122.395,260.800 122.200 C 261.454 121.992,261.600 121.595,261.600 120.020 C 261.600 118.430,261.740 118.057,262.400 117.884 C 263.013 117.724,263.200 117.338,263.200 116.237 C 263.200 114.928,263.492 114.594,264.500 114.753 C 264.665 114.779,264.779 114.665,264.753 114.500 C 264.547 113.199,264.880 111.600,265.357 111.600 C 265.998 111.600,266.400 110.750,266.400 109.394 C 266.400 108.801,266.699 108.359,267.211 108.197 C 267.656 108.055,267.995 107.728,267.963 107.470 C 267.834 106.421,268.018 105.203,268.300 105.247 C 269.282 105.402,269.600 105.072,269.600 103.896 C 269.600 103.026,269.866 102.426,270.400 102.093 C 270.840 101.818,271.200 101.235,271.200 100.797 C 271.200 100.358,271.425 99.997,271.700 99.994 C 272.074 99.989,272.066 99.903,271.666 99.649 C 271.261 99.393,271.336 99.258,271.978 99.090 C 272.443 98.968,272.796 98.718,272.764 98.534 C 272.616 97.690,272.849 97.200,273.400 97.200 C 273.951 97.200,274.045 96.953,274.162 95.205 C 274.184 94.878,274.516 94.550,274.901 94.476 C 275.329 94.393,275.600 93.978,275.600 93.403 C 275.600 92.050,276.002 91.200,276.643 91.200 C 276.949 91.200,277.200 90.840,277.200 90.400 C 277.200 89.867,277.467 89.600,278.000 89.600 C 278.667 89.600,278.800 89.333,278.800 88.000 C 278.800 87.120,278.935 86.421,279.100 86.447 C 279.984 86.587,280.400 86.316,280.400 85.600 C 280.400 85.160,280.667 84.800,280.992 84.800 C 281.631 84.800,282.017 83.595,281.883 82.016 C 281.818 81.241,281.503 80.969,280.400 80.735 C 278.574 80.346,258.930 80.421,257.500 80.822 M91.376 177.030 C 90.949 177.376,90.839 177.537,91.131 177.387 C 91.424 177.237,92.144 176.969,92.731 176.791 C 93.589 176.533,93.637 176.462,92.976 176.434 C 92.524 176.415,91.804 176.683,91.376 177.030 M105.669 176.791 C 106.256 176.969,106.976 177.237,107.269 177.387 C 107.561 177.537,107.451 177.376,107.024 177.030 C 106.596 176.683,105.876 176.415,105.424 176.434 C 104.763 176.462,104.811 176.533,105.669 176.791 M178.200 176.689 C 178.640 176.798,179.270 177.092,179.600 177.343 C 180.122 177.740,180.128 177.709,179.651 177.100 C 179.349 176.715,178.719 176.421,178.251 176.446 C 177.443 176.490,177.440 176.503,178.200 176.689 M158.300 179.632 C 157.915 179.856,157.603 180.256,157.606 180.520 C 157.610 180.852,157.703 180.866,157.906 180.566 C 158.068 180.327,158.560 179.927,159.000 179.678 C 159.440 179.428,159.620 179.224,159.400 179.224 C 159.180 179.224,158.685 179.408,158.300 179.632 M184.600 179.668 C 185.040 179.912,185.679 180.312,186.020 180.556 C 186.360 180.800,186.215 180.595,185.697 180.100 C 185.179 179.605,184.540 179.205,184.278 179.212 C 184.015 179.219,184.160 179.424,184.600 179.668 M82.403 182.702 C 80.641 184.407,79.200 186.053,79.200 186.359 C 79.200 186.665,79.818 186.106,80.573 185.117 C 81.328 184.128,82.903 182.486,84.073 181.469 C 85.243 180.452,86.066 179.615,85.903 179.610 C 85.740 179.604,84.165 180.996,82.403 182.702 M114.327 181.414 C 115.497 182.461,117.072 184.128,117.827 185.117 C 118.582 186.106,119.200 186.751,119.200 186.551 C 119.200 185.945,115.704 182.145,113.895 180.784 C 112.564 179.783,112.657 179.919,114.327 181.414 M178.800 181.886 C 179.130 182.008,179.760 182.274,180.200 182.476 C 180.987 182.838,180.988 182.834,180.224 182.222 C 179.796 181.880,179.166 181.614,178.824 181.632 C 178.285 181.659,178.282 181.693,178.800 181.886 M110.367 183.745 C 110.900 184.401,112.400 185.393,112.400 185.089 C 112.400 185.013,111.815 184.522,111.100 183.999 C 110.296 183.410,110.016 183.313,110.367 183.745 M171.285 184.813 C 170.618 185.880,170.701 188.392,171.442 189.600 C 171.830 190.233,171.948 190.306,171.763 189.800 C 171.207 188.278,171.126 186.085,171.595 185.210 C 172.189 184.099,171.934 183.773,171.285 184.813 M183.980 184.671 C 184.507 185.040,185.402 185.814,185.969 186.390 L 187.000 187.439 186.202 186.419 C 185.184 185.120,183.911 184.020,183.411 184.009 C 183.197 184.004,183.453 184.302,183.980 184.671 M190.400 184.666 C 190.400 184.874,190.850 185.655,191.400 186.400 C 191.950 187.145,192.400 187.638,192.400 187.495 C 192.400 187.353,191.950 186.572,191.400 185.762 C 190.850 184.951,190.400 184.459,190.400 184.666 M98.520 187.200 C 98.520 188.410,98.595 188.905,98.687 188.300 C 98.778 187.695,98.778 186.705,98.687 186.100 C 98.595 185.495,98.520 185.990,98.520 187.200 M150.925 187.632 C 150.450 188.500,150.229 189.106,150.434 188.979 C 150.877 188.705,152.118 186.384,151.924 186.191 C 151.850 186.116,151.400 186.765,150.925 187.632 M187.924 189.800 C 188.126 190.240,188.392 190.870,188.514 191.200 C 188.707 191.718,188.741 191.715,188.768 191.176 C 188.786 190.834,188.520 190.204,188.178 189.776 C 187.566 189.012,187.562 189.013,187.924 189.800 M115.714 192.600 C 115.717 193.700,115.795 194.103,115.887 193.495 C 115.979 192.886,115.977 191.986,115.882 191.495 C 115.787 191.003,115.711 191.500,115.714 192.600 M148.788 192.422 C 148.546 192.874,148.407 193.422,148.480 193.639 C 148.552 193.857,148.818 193.487,149.071 192.817 C 149.597 191.425,149.439 191.205,148.788 192.422 M173.463 193.200 C 174.051 193.860,174.598 194.400,174.678 194.400 C 174.758 194.400,174.425 193.860,173.937 193.200 C 173.449 192.540,172.902 192.000,172.722 192.000 C 172.541 192.000,172.875 192.540,173.463 193.200 M194.634 193.165 C 194.796 193.476,195.061 194.286,195.223 194.965 C 195.494 196.100,195.521 196.118,195.559 195.176 C 195.582 194.614,195.317 193.804,194.970 193.376 C 194.624 192.949,194.473 192.854,194.634 193.165 M188.400 194.334 C 188.400 194.591,187.635 195.556,186.700 196.478 C 185.360 197.799,185.264 197.971,186.247 197.288 C 187.603 196.346,189.004 194.471,188.632 194.099 C 188.504 193.971,188.400 194.077,188.400 194.334 M75.221 196.300 C 74.992 197.125,74.830 198.790,74.861 200.000 L 74.917 202.200 75.222 199.400 C 75.390 197.860,75.654 196.195,75.810 195.700 C 75.966 195.205,75.991 194.800,75.865 194.800 C 75.740 194.800,75.450 195.475,75.221 196.300 M103.362 195.800 C 104.172 196.350,104.953 196.800,105.095 196.800 C 105.238 196.800,104.745 196.350,104.000 195.800 C 103.255 195.250,102.474 194.800,102.266 194.800 C 102.059 194.800,102.551 195.250,103.362 195.800 M115.200 195.367 C 115.200 195.679,114.561 196.330,113.779 196.813 C 112.997 197.296,112.446 197.779,112.553 197.886 C 112.877 198.210,115.600 195.946,115.600 195.353 C 115.600 195.049,115.510 194.800,115.400 194.800 C 115.290 194.800,115.200 195.055,115.200 195.367 M122.695 196.200 C 123.082 197.722,123.088 201.378,122.707 203.200 C 122.457 204.395,122.484 204.483,122.894 203.800 C 123.541 202.721,123.541 196.824,122.895 195.800 C 122.444 195.087,122.422 195.130,122.695 196.200 M148.093 196.400 C 148.093 197.170,148.175 197.485,148.276 197.100 C 148.376 196.715,148.376 196.085,148.276 195.700 C 148.175 195.315,148.093 195.630,148.093 196.400 M106.400 197.400 C 106.950 197.714,107.580 197.972,107.800 197.972 C 108.020 197.972,107.750 197.714,107.200 197.400 C 106.650 197.086,106.020 196.828,105.800 196.828 C 105.580 196.828,105.850 197.086,106.400 197.400 M179.024 197.387 C 179.451 197.710,179.980 197.975,180.200 197.975 C 180.420 197.975,180.251 197.710,179.824 197.387 C 179.396 197.064,178.867 196.800,178.647 196.800 C 178.427 196.800,178.596 197.064,179.024 197.387 M109.305 198.287 C 109.914 198.379,110.814 198.377,111.305 198.282 C 111.797 198.187,111.300 198.111,110.200 198.114 C 109.100 198.117,108.697 198.195,109.305 198.287 M181.900 198.282 C 182.395 198.378,183.205 198.378,183.700 198.282 C 184.195 198.187,183.790 198.109,182.800 198.109 C 181.810 198.109,181.405 198.187,181.900 198.282 M148.101 203.000 C 148.105 203.880,148.187 204.193,148.283 203.695 C 148.379 203.198,148.375 202.478,148.275 202.095 C 148.175 201.713,148.096 202.120,148.101 203.000 M75.234 203.000 C 75.222 203.440,75.387 204.070,75.600 204.400 C 76.114 205.195,76.114 204.196,75.600 203.000 L 75.256 202.200 75.234 203.000 M148.432 206.024 C 148.414 206.366,148.680 206.996,149.022 207.424 C 149.634 208.188,149.638 208.187,149.276 207.400 C 149.074 206.960,148.808 206.330,148.686 206.000 C 148.493 205.482,148.459 205.485,148.432 206.024 M76.404 207.800 C 76.405 208.020,76.763 208.740,77.200 209.400 C 78.236 210.964,78.237 210.408,77.201 208.710 C 76.762 207.989,76.404 207.580,76.404 207.800 M193.178 209.898 C 192.274 211.701,192.287 211.879,193.220 210.483 C 193.704 209.759,194.017 209.083,193.915 208.982 C 193.813 208.880,193.481 209.292,193.178 209.898 M119.624 211.955 C 119.382 212.408,118.250 213.908,117.109 215.289 C 115.968 216.670,115.347 217.548,115.730 217.240 C 116.843 216.345,120.519 211.586,120.281 211.348 C 120.162 211.229,119.867 211.502,119.624 211.955 M191.246 213.326 C 190.795 214.056,190.060 214.984,189.613 215.388 C 189.166 215.793,188.800 216.293,188.800 216.500 C 188.800 216.927,191.426 213.872,192.031 212.742 C 192.705 211.483,192.112 211.924,191.246 213.326 M80.575 214.932 C 81.191 215.739,81.776 216.400,81.875 216.400 C 82.153 216.400,80.421 214.060,79.909 213.744 C 79.659 213.589,79.959 214.124,80.575 214.932 M187.549 217.465 C 187.247 217.830,186.460 218.460,185.800 218.863 C 185.140 219.267,184.828 219.598,185.106 219.599 C 185.608 219.600,188.829 216.832,188.349 216.811 C 188.211 216.805,187.851 217.099,187.549 217.465 M155.724 217.477 C 156.060 218.021,159.200 220.555,159.200 220.282 C 159.200 220.180,158.353 219.403,157.319 218.555 C 156.284 217.707,155.566 217.222,155.724 217.477 M111.656 220.013 C 111.136 220.446,110.898 220.800,111.127 220.800 C 111.531 220.800,112.800 219.716,112.800 219.371 C 112.800 219.099,112.658 219.178,111.656 220.013 M181.424 221.413 C 180.996 221.736,180.827 222.000,181.047 222.000 C 181.267 222.000,181.796 221.736,182.224 221.413 C 182.651 221.090,182.820 220.825,182.600 220.825 C 182.380 220.825,181.851 221.090,181.424 221.413 M92.800 222.958 C 93.350 223.296,94.250 223.560,94.800 223.545 C 95.715 223.520,95.698 223.492,94.600 223.209 C 93.940 223.038,93.040 222.774,92.600 222.622 C 92.069 222.438,92.136 222.551,92.800 222.958 M105.487 222.646 C 105.351 222.782,104.646 223.033,103.920 223.205 C 102.827 223.464,102.772 223.523,103.600 223.545 C 104.150 223.560,105.050 223.314,105.600 223.000 C 106.150 222.686,106.405 222.422,106.167 222.414 C 105.928 222.406,105.622 222.511,105.487 222.646 M165.033 222.793 C 165.248 223.008,166.049 223.287,166.813 223.411 L 168.200 223.637 166.600 223.024 C 164.709 222.301,164.511 222.271,165.033 222.793 M176.800 223.061 L 175.400 223.626 176.788 223.406 C 177.551 223.284,178.352 223.008,178.567 222.793 C 179.086 222.274,178.544 222.357,176.800 223.061 M60.667 241.867 C 60.143 242.390,60.413 243.619,61.200 244.293 C 61.640 244.670,62.000 245.178,62.000 245.423 C 62.000 246.129,70.063 253.600,70.824 253.600 C 71.016 253.600,71.365 253.960,71.600 254.400 C 71.835 254.840,72.264 255.200,72.552 255.200 C 72.840 255.200,73.402 255.560,73.800 256.000 C 74.198 256.440,74.806 256.800,75.151 256.800 C 75.496 256.800,74.601 255.945,73.162 254.900 C 70.029 252.624,69.997 252.597,66.002 248.787 C 62.191 245.153,60.636 243.034,61.345 242.445 C 61.694 242.156,62.251 242.424,63.301 243.386 C 65.885 245.754,72.946 251.200,73.431 251.200 C 73.600 251.200,74.067 251.499,74.471 251.864 C 75.334 252.646,76.469 253.330,78.400 254.234 C 79.170 254.595,79.890 255.017,80.000 255.172 C 80.321 255.625,87.840 259.200,88.472 259.200 C 88.788 259.200,89.396 259.464,89.824 259.787 C 90.824 260.544,91.233 260.552,90.949 259.811 C 90.824 259.487,90.065 259.104,89.261 258.960 C 88.458 258.816,87.530 258.465,87.200 258.180 C 86.870 257.896,86.060 257.534,85.400 257.377 C 84.740 257.221,83.930 256.859,83.599 256.574 C 83.269 256.289,82.549 255.861,81.999 255.624 C 80.463 254.960,75.959 252.349,73.851 250.900 C 72.811 250.185,71.795 249.600,71.594 249.600 C 71.393 249.600,71.035 249.240,70.800 248.800 C 70.565 248.360,70.108 248.000,69.786 248.000 C 69.464 248.000,69.200 247.850,69.200 247.666 C 69.200 247.483,68.225 246.661,67.033 245.840 C 65.841 245.019,64.766 244.089,64.645 243.774 C 64.524 243.458,64.193 243.200,63.909 243.200 C 63.625 243.200,63.168 242.840,62.893 242.400 C 62.406 241.620,61.202 241.332,60.667 241.867 M214.209 243.698 C 212.994 244.852,212.000 245.917,212.000 246.064 C 212.000 246.315,213.990 244.704,215.698 243.069 C 217.959 240.905,217.792 243.729,215.510 246.242 C 212.722 249.312,211.795 250.180,208.650 252.663 C 206.863 254.074,205.136 255.446,204.813 255.711 C 203.850 256.503,201.763 257.876,201.162 258.115 C 200.802 258.257,200.901 258.348,201.438 258.368 C 201.899 258.386,202.602 258.040,203.000 257.600 C 203.398 257.160,203.960 256.800,204.248 256.800 C 204.536 256.800,204.965 256.440,205.200 256.000 C 205.435 255.560,205.828 255.200,206.073 255.200 C 206.574 255.200,208.964 253.302,211.858 250.607 C 212.925 249.613,213.922 248.800,214.072 248.800 C 214.223 248.800,214.460 248.440,214.600 248.000 C 214.740 247.560,215.112 247.200,215.427 247.200 C 215.742 247.200,216.000 246.936,216.000 246.614 C 216.000 246.292,216.360 245.835,216.800 245.600 C 217.240 245.365,217.600 244.930,217.600 244.635 C 217.600 244.340,217.851 243.889,218.159 243.634 C 218.466 243.379,218.625 242.817,218.512 242.385 C 218.143 240.973,216.573 241.452,214.209 243.698 M210.387 247.004 C 209.353 248.068,207.297 249.600,206.904 249.600 C 206.695 249.600,206.198 249.960,205.800 250.400 C 205.402 250.840,204.834 251.200,204.538 251.200 C 204.242 251.200,204.000 251.389,204.000 251.620 C 204.000 251.852,203.370 252.304,202.600 252.626 C 201.830 252.948,201.200 253.388,201.200 253.605 C 201.200 253.822,200.864 254.000,200.454 254.000 C 200.044 254.000,199.250 254.360,198.691 254.800 C 198.131 255.240,197.501 255.600,197.291 255.600 C 197.080 255.600,196.448 255.962,195.886 256.404 C 195.325 256.845,194.307 257.319,193.624 257.455 C 192.450 257.690,191.716 258.249,192.091 258.624 C 192.273 258.806,198.064 255.905,200.400 254.461 C 201.170 253.986,202.369 253.332,203.063 253.008 C 203.758 252.685,204.388 252.277,204.463 252.102 C 204.539 251.927,205.590 251.126,206.800 250.322 C 209.480 248.541,211.950 246.438,211.387 246.416 C 211.160 246.407,210.710 246.672,210.387 247.004 M76.000 257.132 C 76.000 257.651,77.096 258.504,77.550 258.338 C 77.757 258.262,77.493 257.877,76.963 257.481 C 76.433 257.086,76.000 256.929,76.000 257.132 M79.000 259.200 C 79.398 259.640,79.966 260.000,80.262 260.000 C 80.558 260.000,81.160 260.360,81.600 260.800 C 82.040 261.240,82.738 261.600,83.151 261.600 C 83.564 261.600,84.122 261.865,84.391 262.189 C 84.660 262.514,85.480 262.891,86.212 263.029 C 86.945 263.166,87.637 263.518,87.749 263.811 C 87.861 264.104,88.762 264.465,89.750 264.613 C 90.738 264.762,91.639 265.124,91.752 265.419 C 91.865 265.714,92.642 266.083,93.479 266.238 C 94.316 266.394,95.395 266.777,95.877 267.091 C 96.359 267.405,97.169 267.601,97.677 267.528 C 98.302 267.437,97.631 267.084,95.600 266.435 C 93.950 265.907,92.316 265.234,91.969 264.938 C 91.621 264.642,91.027 264.400,90.648 264.400 C 90.269 264.400,89.293 264.043,88.479 263.606 C 87.666 263.170,86.010 262.339,84.800 261.761 C 81.735 260.296,79.957 259.317,79.462 258.822 C 78.686 258.046,78.266 258.389,79.000 259.200 M200.032 258.639 C 200.014 258.880,199.595 259.273,199.100 259.512 C 198.549 259.778,198.433 259.954,198.800 259.967 C 199.733 259.999,200.520 259.350,200.280 258.746 C 200.161 258.446,200.049 258.397,200.032 258.639 M189.534 259.069 C 189.168 259.166,188.768 259.505,188.647 259.823 C 188.368 260.549,188.328 260.555,190.200 259.600 C 191.640 258.866,191.306 258.600,189.534 259.069 M197.200 260.373 C 197.200 260.578,196.826 260.865,196.370 261.010 C 195.913 261.154,195.630 261.363,195.740 261.473 C 196.090 261.823,197.517 261.192,197.750 260.585 C 197.874 260.263,197.801 260.000,197.587 260.000 C 197.374 260.000,197.200 260.168,197.200 260.373 M92.680 260.842 C 93.384 261.046,94.070 261.390,94.204 261.606 C 94.338 261.823,94.752 261.994,95.124 261.987 C 95.672 261.976,95.621 261.824,94.856 261.187 C 94.324 260.743,93.363 260.416,92.656 260.436 L 91.400 260.472 92.680 260.842 M185.600 260.684 C 185.270 260.805,184.730 261.127,184.400 261.400 C 184.070 261.672,183.010 261.995,182.045 262.117 C 180.363 262.329,178.234 263.617,179.614 263.587 C 179.936 263.580,180.549 263.310,180.976 262.987 C 181.404 262.664,182.214 262.399,182.776 262.398 C 183.339 262.396,184.340 262.105,185.000 261.751 C 185.660 261.397,186.650 260.964,187.200 260.788 L 188.200 260.469 187.200 260.466 C 186.650 260.464,185.930 260.562,185.600 260.684 M193.824 262.213 C 193.396 262.536,192.795 262.800,192.487 262.800 C 192.178 262.800,191.469 263.160,190.909 263.600 C 190.350 264.040,189.488 264.400,188.995 264.400 C 188.502 264.400,187.883 264.658,187.621 264.974 C 187.359 265.290,186.572 265.669,185.872 265.816 C 185.173 265.964,184.060 266.319,183.400 266.606 C 182.740 266.893,181.930 267.220,181.600 267.333 C 181.259 267.449,181.436 267.550,182.011 267.568 C 182.567 267.586,183.377 267.356,183.811 267.057 C 184.245 266.758,185.284 266.388,186.121 266.235 C 186.958 266.081,187.734 265.717,187.846 265.425 C 187.958 265.133,188.735 264.785,189.573 264.651 C 190.411 264.517,191.322 264.136,191.597 263.804 C 191.873 263.472,192.337 263.200,192.630 263.200 C 193.418 263.200,195.200 262.323,195.200 261.936 C 195.200 261.446,194.706 261.545,193.824 262.213 M97.000 262.337 C 97.660 262.515,98.593 262.872,99.074 263.131 C 100.320 263.800,100.982 263.724,100.253 262.996 C 99.920 262.663,98.783 262.306,97.724 262.203 C 96.271 262.060,96.094 262.093,97.000 262.337 M102.200 263.865 C 102.640 263.960,103.659 264.319,104.465 264.664 C 105.271 265.008,106.156 265.215,106.432 265.123 C 107.278 264.841,104.166 263.597,102.740 263.646 C 101.964 263.673,101.737 263.765,102.200 263.865 M174.439 264.289 C 172.673 265.159,173.619 265.483,175.535 264.664 C 176.341 264.319,177.360 263.960,177.800 263.865 C 178.240 263.770,177.970 263.676,177.200 263.656 C 176.430 263.635,175.187 263.920,174.439 264.289 M109.251 265.607 C 110.270 265.779,111.473 266.118,111.925 266.360 C 112.377 266.602,113.164 266.794,113.674 266.786 C 114.420 266.775,114.289 266.622,113.000 266.000 C 112.024 265.529,110.620 265.240,109.400 265.261 L 107.400 265.294 109.251 265.607 M167.239 265.889 C 165.436 266.777,166.343 267.033,168.500 266.245 C 169.435 265.903,170.740 265.555,171.400 265.472 C 172.120 265.381,171.800 265.300,170.600 265.269 C 169.439 265.240,168.029 265.499,167.239 265.889 M118.200 267.074 C 118.860 267.159,120.606 267.492,122.079 267.814 C 123.552 268.136,125.892 268.372,127.279 268.337 L 129.800 268.274 127.200 267.996 C 125.770 267.842,123.971 267.511,123.203 267.258 C 122.434 267.006,120.724 266.827,119.403 266.860 C 118.081 266.893,117.540 266.989,118.200 267.074 M157.000 267.290 C 156.340 267.522,154.540 267.838,153.000 267.991 L 150.200 268.271 152.921 268.335 C 154.418 268.371,156.848 268.136,158.321 267.814 C 159.794 267.492,161.540 267.159,162.200 267.074 C 162.860 266.989,162.230 266.908,160.800 266.894 C 159.370 266.880,157.660 267.058,157.000 267.290 M100.099 268.362 C 100.923 268.823,102.093 269.192,102.699 269.182 C 103.696 269.167,103.649 269.107,102.200 268.550 C 99.459 267.496,98.377 267.400,100.099 268.362 M178.578 268.161 C 178.138 268.469,177.332 268.804,176.789 268.906 C 176.057 269.043,176.183 269.105,177.276 269.146 C 178.088 269.175,178.872 269.007,179.017 268.772 C 179.163 268.537,179.668 268.188,180.141 267.997 C 180.969 267.663,180.970 267.650,180.189 267.625 C 179.743 267.611,179.018 267.852,178.578 268.161 M136.920 268.698 C 138.855 268.772,141.915 268.771,143.720 268.697 C 145.524 268.623,143.940 268.563,140.200 268.564 C 136.460 268.564,134.984 268.625,136.920 268.698 M104.871 269.484 C 105.460 269.574,106.157 269.907,106.420 270.224 C 106.707 270.570,107.556 270.784,108.549 270.759 C 110.098 270.721,110.126 270.700,109.000 270.429 C 108.340 270.269,107.407 269.928,106.926 269.669 C 106.446 269.411,105.546 269.227,104.926 269.260 L 103.800 269.320 104.871 269.484 M173.014 269.680 C 172.581 269.931,171.681 270.267,171.014 270.427 L 169.800 270.718 171.211 270.759 C 171.987 270.782,172.977 270.552,173.411 270.248 C 173.845 269.945,174.560 269.605,175.000 269.494 C 175.661 269.328,175.626 269.287,174.800 269.259 C 174.250 269.240,173.446 269.430,173.014 269.680 M112.400 271.020 C 112.400 271.653,115.465 272.394,117.887 272.347 L 120.600 272.295 117.943 271.985 C 116.482 271.814,114.919 271.478,114.470 271.237 C 113.606 270.775,112.400 270.649,112.400 271.020 M165.600 271.274 C 165.050 271.506,163.520 271.841,162.200 272.018 L 159.800 272.339 162.800 272.265 C 164.909 272.213,166.094 271.984,166.789 271.495 C 167.887 270.724,167.202 270.596,165.600 271.274 M123.600 273.115 C 125.781 274.181,154.719 274.149,156.800 273.079 L 158.200 272.359 156.200 272.594 C 155.100 272.723,153.210 272.989,152.000 273.185 C 148.286 273.787,130.644 273.652,127.000 272.994 C 122.691 272.215,121.822 272.246,123.600 273.115 M161.134 296.350 C 161.568 296.626,161.555 296.732,161.067 296.919 C 160.736 297.046,160.367 296.891,160.246 296.575 C 159.998 295.930,160.336 295.845,161.134 296.350 " stroke="none" fill="#bc6c24" fill-rule="evenodd"></path><path id="path3" d="M122.107 109.644 C 122.040 110.527,122.615 110.659,122.932 109.833 C 123.052 109.521,122.928 109.181,122.657 109.077 C 122.382 108.972,122.138 109.223,122.107 109.644 M118.557 110.633 C 118.691 110.981,118.800 111.351,118.800 111.456 C 118.800 111.561,118.980 111.536,119.200 111.400 C 119.837 111.006,119.663 110.000,118.957 110.000 C 118.535 110.000,118.398 110.218,118.557 110.633 M110.584 113.627 C 110.439 113.861,110.428 114.161,110.560 114.293 C 110.692 114.425,110.800 114.323,110.800 114.067 C 110.800 113.810,110.991 113.600,111.224 113.600 C 111.457 113.600,111.519 113.808,111.362 114.062 C 111.185 114.348,111.252 114.415,111.538 114.238 C 111.792 114.081,112.000 113.783,112.000 113.576 C 112.000 113.061,110.909 113.100,110.584 113.627 M96.148 121.792 C 96.012 122.145,96.013 122.547,96.151 122.684 C 96.288 122.821,96.403 122.588,96.406 122.167 C 96.411 121.525,96.476 121.498,96.800 122.000 C 97.033 122.361,97.190 122.410,97.194 122.124 C 97.204 121.346,96.415 121.096,96.148 121.792 M86.766 128.463 C 86.552 128.864,86.246 129.173,86.088 129.149 C 85.315 129.032,85.148 129.255,85.600 129.800 C 86.302 130.646,86.724 130.546,86.872 129.500 C 86.942 129.005,87.255 128.600,87.567 128.600 C 87.878 128.600,88.198 128.405,88.278 128.167 C 88.524 127.428,87.179 127.691,86.766 128.463 M259.790 134.800 C 259.900 135.350,259.992 136.025,259.995 136.300 C 259.998 136.575,260.360 136.800,260.800 136.800 C 261.372 136.800,261.591 136.544,261.568 135.900 C 261.551 135.405,261.447 135.223,261.336 135.496 C 261.111 136.053,260.357 135.489,259.860 134.393 C 259.712 134.067,259.681 134.250,259.790 134.800 M77.788 136.020 C 77.407 136.635,77.928 137.032,78.442 136.518 C 78.729 136.231,78.736 136.007,78.462 135.839 C 78.239 135.700,77.935 135.782,77.788 136.020 M76.126 137.500 C 75.989 137.885,75.787 138.363,75.677 138.562 C 75.566 138.761,75.684 138.795,75.938 138.638 C 76.192 138.481,76.400 138.108,76.400 137.810 C 76.400 137.511,76.625 137.176,76.900 137.065 C 77.292 136.907,77.289 136.856,76.887 136.832 C 76.606 136.814,76.263 137.115,76.126 137.500 M124.400 140.218 C 113.055 141.221,101.251 143.062,96.400 144.584 C 95.410 144.894,93.970 145.269,93.200 145.417 C 90.681 145.899,84.581 147.753,80.592 149.248 C 79.488 149.661,78.313 150.000,77.981 150.000 C 77.649 150.000,77.023 150.246,76.589 150.546 C 76.155 150.846,75.350 151.228,74.800 151.394 C 74.250 151.560,72.304 152.394,70.476 153.248 C 68.648 154.101,66.929 154.800,66.656 154.800 C 66.383 154.800,65.948 155.012,65.690 155.270 C 65.420 155.540,64.152 155.723,62.710 155.700 C 61.329 155.678,60.515 155.750,60.900 155.859 C 61.285 155.969,61.600 156.220,61.600 156.417 C 61.600 156.614,61.329 156.671,60.999 156.544 C 60.568 156.379,60.327 156.666,60.149 157.557 C 60.012 158.241,59.652 158.800,59.350 158.800 C 59.048 158.800,58.800 159.139,58.800 159.553 C 58.800 159.970,58.443 160.400,58.000 160.516 C 57.426 160.666,57.200 161.062,57.200 161.916 C 57.200 162.782,56.975 163.165,56.375 163.322 C 55.922 163.441,55.583 163.777,55.623 164.069 C 55.835 165.631,55.563 166.400,54.800 166.400 C 54.133 166.400,54.000 166.667,54.000 168.000 C 54.000 169.302,53.859 169.600,53.244 169.600 C 52.829 169.600,52.497 169.825,52.507 170.100 C 52.584 172.151,52.361 172.800,51.582 172.800 C 51.133 172.800,50.794 173.025,50.830 173.300 C 51.039 174.911,50.737 175.966,50.000 176.200 C 49.560 176.340,49.200 176.632,49.200 176.851 C 49.200 177.069,49.425 177.120,49.700 176.965 C 50.100 176.739,50.100 176.790,49.700 177.221 C 49.425 177.518,49.200 178.333,49.200 179.033 C 49.200 179.970,48.989 180.362,48.400 180.516 C 47.771 180.680,47.600 181.062,47.600 182.301 C 47.600 183.368,47.342 184.109,46.800 184.600 C 46.177 185.163,46.000 185.832,46.000 187.615 C 46.000 189.546,45.878 189.939,45.225 190.109 C 44.557 190.284,44.450 190.677,44.450 192.947 C 44.450 195.259,43.715 198.169,43.578 196.400 C 43.472 195.030,42.867 198.174,42.865 200.104 C 42.862 203.750,42.820 204.000,42.200 204.000 C 41.870 204.000,41.600 204.191,41.600 204.424 C 41.600 204.657,41.825 204.720,42.100 204.565 C 42.500 204.339,42.500 204.390,42.100 204.821 C 41.172 205.821,41.396 240.822,42.332 241.066 C 42.927 241.222,43.036 241.571,42.914 242.934 C 42.803 244.174,42.961 244.822,43.521 245.423 C 43.949 245.882,44.373 247.085,44.498 248.193 C 44.624 249.312,44.993 250.352,45.359 250.620 C 45.712 250.877,46.000 251.460,46.000 251.916 C 46.000 252.751,46.962 254.000,47.606 254.000 C 47.797 254.000,47.884 254.362,47.799 254.805 C 47.699 255.322,47.979 255.830,48.580 256.224 C 49.218 256.642,49.449 257.091,49.307 257.635 C 49.192 258.075,49.256 258.405,49.449 258.370 C 50.308 258.212,50.764 258.456,51.000 259.200 C 51.140 259.640,51.512 260.000,51.827 260.000 C 52.195 260.000,52.400 260.423,52.400 261.186 C 52.400 262.099,52.731 262.596,53.839 263.349 C 55.038 264.163,55.154 264.358,54.539 264.517 C 53.935 264.672,53.965 264.716,54.700 264.754 C 55.318 264.785,55.600 265.051,55.600 265.600 C 55.600 266.098,55.865 266.398,56.300 266.394 C 56.898 266.389,56.913 266.331,56.400 266.000 C 56.023 265.756,55.981 265.610,56.286 265.606 C 56.889 265.599,57.554 266.826,57.313 267.500 C 57.199 267.816,57.509 268.000,58.154 268.000 C 58.914 268.000,59.114 268.159,58.935 268.624 C 58.776 269.041,58.979 269.322,59.548 269.471 C 60.017 269.593,60.400 269.934,60.400 270.229 C 60.400 270.523,61.013 270.879,61.763 271.019 C 62.632 271.182,63.199 271.552,63.326 272.038 C 63.441 272.477,63.875 272.800,64.350 272.800 C 64.922 272.800,65.104 272.986,64.943 273.405 C 64.778 273.834,64.894 273.939,65.346 273.765 C 65.777 273.600,66.134 273.856,66.455 274.561 C 66.827 275.378,67.214 275.600,68.264 275.600 C 69.333 275.600,69.600 275.760,69.600 276.400 C 69.600 276.840,69.735 277.179,69.900 277.153 C 71.521 276.897,72.800 277.270,72.800 278.000 C 72.800 278.497,73.067 278.800,73.504 278.800 C 73.891 278.800,74.432 279.160,74.707 279.600 C 74.990 280.052,75.640 280.400,76.203 280.400 C 76.752 280.400,77.560 280.760,78.000 281.200 C 78.440 281.640,79.222 282.000,79.738 282.000 C 80.254 282.000,81.002 282.360,81.400 282.800 C 81.908 283.361,82.632 283.600,83.825 283.600 C 85.328 283.600,85.501 283.693,85.316 284.400 C 85.132 285.105,85.304 285.200,86.766 285.200 C 87.840 285.200,88.503 285.403,88.646 285.775 C 88.780 286.125,89.719 286.457,91.033 286.621 C 92.366 286.788,93.200 287.086,93.200 287.396 C 93.200 287.983,94.964 288.400,97.450 288.400 C 98.739 288.400,99.200 288.558,99.200 289.000 C 99.200 289.702,99.221 289.709,101.709 289.801 C 103.035 289.851,103.781 290.095,104.151 290.601 C 104.476 291.045,104.941 291.231,105.342 291.078 C 105.704 290.939,106.000 290.999,106.000 291.213 C 106.000 291.426,107.241 291.600,108.757 291.600 C 110.847 291.600,111.571 291.746,111.746 292.204 C 111.873 292.536,112.118 292.784,112.289 292.756 C 114.846 292.336,119.529 292.887,119.724 293.630 C 119.855 294.132,120.229 294.430,120.670 294.384 C 124.822 293.950,131.921 294.456,132.116 295.200 C 132.436 296.423,153.600 296.459,153.600 295.236 C 153.600 294.563,154.018 294.439,157.100 294.194 C 163.056 293.722,171.262 292.489,175.600 291.414 C 176.810 291.114,178.700 290.746,179.800 290.595 C 180.900 290.444,182.147 290.135,182.572 289.908 C 182.996 289.681,184.346 289.263,185.572 288.978 C 188.967 288.190,191.192 287.558,193.494 286.726 C 194.645 286.310,196.625 285.600,197.894 285.147 C 199.162 284.695,200.710 284.071,201.332 283.762 C 201.955 283.453,202.673 283.200,202.927 283.200 C 203.441 283.200,204.904 282.517,212.910 278.538 C 220.139 274.946,219.807 275.129,223.659 272.616 C 230.715 268.012,234.933 264.598,240.729 258.800 C 243.854 255.674,250.000 248.131,250.000 247.422 C 250.000 247.320,250.407 246.636,250.903 245.904 C 251.400 245.172,252.507 243.139,253.362 241.386 C 254.218 239.634,255.089 237.859,255.298 237.442 C 255.939 236.167,257.238 232.301,257.664 230.400 C 257.886 229.410,258.322 227.483,258.634 226.118 C 260.290 218.856,258.717 205.034,255.411 197.800 C 253.317 193.219,251.813 190.236,250.974 189.000 C 250.438 188.210,250.000 187.496,250.000 187.413 C 250.000 185.384,236.173 171.061,229.800 166.487 C 229.579 166.329,228.736 165.705,227.926 165.100 C 227.116 164.495,226.289 164.000,226.089 164.000 C 225.888 164.000,225.398 163.640,225.000 163.200 C 224.602 162.760,224.122 162.400,223.934 162.400 C 223.746 162.400,222.739 161.806,221.696 161.081 C 220.653 160.356,218.720 159.205,217.400 158.524 C 216.080 157.843,214.101 156.807,213.003 156.223 C 211.904 155.638,209.114 154.344,206.803 153.348 C 204.491 152.352,202.045 151.268,201.367 150.941 C 200.688 150.614,199.518 150.189,198.767 149.998 C 198.015 149.806,196.140 149.174,194.600 148.592 C 193.060 148.010,191.170 147.354,190.400 147.133 C 183.606 145.186,180.852 144.485,177.293 143.799 C 175.695 143.491,174.230 143.142,174.039 143.024 C 173.436 142.651,162.855 141.158,156.400 140.535 C 147.733 139.698,132.032 139.543,124.400 140.218 M273.065 148.576 C 272.945 148.889,273.133 149.080,273.532 149.050 C 273.899 149.023,274.151 149.238,274.090 149.530 C 274.030 149.821,274.165 149.945,274.390 149.806 C 274.616 149.667,274.800 149.823,274.800 150.153 C 274.800 150.483,274.980 150.864,275.200 151.000 C 275.427 151.140,275.600 150.804,275.600 150.224 C 275.600 149.580,275.377 149.200,275.000 149.200 C 274.670 149.200,274.400 149.039,274.400 148.843 C 274.400 148.241,273.279 148.017,273.065 148.576 M103.219 163.610 C 105.298 164.055,107.540 164.663,108.200 164.961 C 118.698 169.700,123.868 174.271,128.708 183.093 C 144.134 211.211,114.697 245.264,84.000 234.812 C 82.570 234.326,81.220 233.786,81.000 233.613 C 80.780 233.440,80.153 233.161,79.608 232.993 C 79.062 232.825,78.162 232.381,77.608 232.006 C 77.053 231.632,75.800 230.802,74.823 230.163 C 70.190 227.132,65.008 221.211,62.778 216.400 C 62.523 215.850,62.139 215.065,61.926 214.655 C 58.082 207.284,58.075 192.752,61.911 184.933 C 64.483 179.692,66.422 176.897,69.938 173.366 C 73.015 170.274,80.217 165.649,82.011 165.613 C 82.347 165.606,83.008 165.330,83.480 164.999 C 83.951 164.669,85.728 164.132,87.427 163.807 C 89.127 163.482,90.611 163.122,90.725 163.008 C 91.282 162.452,99.705 162.857,103.219 163.610 M182.000 163.431 C 195.048 166.217,205.503 175.001,209.817 186.800 C 210.977 189.973,212.368 196.919,212.380 199.600 C 212.408 205.621,208.292 218.553,205.632 220.800 C 205.502 220.910,204.865 221.720,204.218 222.600 C 194.286 236.093,171.604 240.889,158.000 232.374 C 157.670 232.167,157.011 231.829,156.535 231.622 C 156.059 231.416,154.609 230.439,153.312 229.453 C 129.479 211.328,135.023 175.120,163.200 164.868 C 168.895 162.795,176.356 162.225,182.000 163.431 M62.893 242.400 C 63.168 242.840,63.625 243.200,63.909 243.200 C 64.193 243.200,64.524 243.458,64.645 243.774 C 64.766 244.089,65.841 245.019,67.033 245.840 C 68.225 246.661,69.200 247.483,69.200 247.666 C 69.200 247.850,69.464 248.000,69.786 248.000 C 70.108 248.000,70.565 248.360,70.800 248.800 C 71.035 249.240,71.393 249.600,71.594 249.600 C 71.795 249.600,72.811 250.185,73.851 250.900 C 75.959 252.349,80.463 254.960,81.999 255.624 C 82.549 255.861,83.269 256.289,83.599 256.574 C 83.930 256.859,84.740 257.221,85.400 257.377 C 86.060 257.534,86.870 257.896,87.200 258.180 C 87.530 258.465,88.458 258.816,89.261 258.960 C 90.065 259.104,90.824 259.487,90.949 259.811 C 91.087 260.170,91.706 260.400,92.534 260.400 C 93.281 260.400,94.321 260.733,94.846 261.139 C 95.371 261.546,96.666 261.994,97.724 262.135 C 98.783 262.276,99.920 262.663,100.253 262.996 C 100.600 263.343,101.572 263.600,102.534 263.600 C 103.457 263.600,104.884 263.960,105.704 264.400 C 106.638 264.901,107.984 265.205,109.299 265.214 C 110.531 265.222,112.062 265.547,113.000 266.000 C 114.217 266.588,115.483 266.776,118.286 266.786 C 120.771 266.796,122.596 267.028,123.886 267.500 C 126.757 268.550,153.618 268.545,156.514 267.494 C 157.796 267.029,159.612 266.800,162.015 266.800 C 164.839 266.800,165.921 266.630,167.096 266.000 C 168.047 265.490,169.352 265.200,170.696 265.200 C 172.039 265.200,173.344 264.910,174.296 264.400 C 175.116 263.960,176.497 263.600,177.363 263.600 C 178.238 263.600,179.248 263.319,179.637 262.966 C 180.023 262.617,181.117 262.234,182.069 262.114 C 183.021 261.993,184.101 261.633,184.469 261.314 C 184.837 260.994,185.887 260.632,186.803 260.509 C 187.720 260.386,188.563 260.040,188.678 259.740 C 188.793 259.441,189.577 259.085,190.419 258.951 C 191.261 258.816,192.036 258.482,192.141 258.210 C 192.246 257.937,192.901 257.600,193.598 257.460 C 194.295 257.321,195.325 256.845,195.886 256.404 C 196.448 255.962,197.080 255.600,197.291 255.600 C 197.501 255.600,198.131 255.240,198.691 254.800 C 199.250 254.360,200.044 254.000,200.454 254.000 C 200.864 254.000,201.200 253.822,201.200 253.605 C 201.200 253.388,201.830 252.948,202.600 252.626 C 203.370 252.304,204.000 251.852,204.000 251.620 C 204.000 251.389,204.242 251.200,204.538 251.200 C 204.834 251.200,205.402 250.840,205.800 250.400 C 206.198 249.960,206.695 249.600,206.904 249.600 C 207.271 249.600,209.124 248.234,210.434 246.998 C 210.782 246.669,211.169 246.400,211.294 246.400 C 211.419 246.400,212.608 245.320,213.936 244.000 C 215.566 242.380,216.668 241.600,217.329 241.600 C 218.479 241.600,219.018 242.921,218.159 243.634 C 217.851 243.889,217.600 244.340,217.600 244.635 C 217.600 244.930,217.240 245.365,216.800 245.600 C 216.360 245.835,216.000 246.292,216.000 246.614 C 216.000 246.936,215.742 247.200,215.427 247.200 C 215.112 247.200,214.740 247.560,214.600 248.000 C 214.460 248.440,214.223 248.800,214.072 248.800 C 213.922 248.800,212.925 249.613,211.858 250.607 C 208.964 253.302,206.574 255.200,206.073 255.200 C 205.828 255.200,205.435 255.560,205.200 256.000 C 204.965 256.440,204.536 256.800,204.248 256.800 C 203.960 256.800,203.398 257.160,203.000 257.600 C 202.602 258.040,201.854 258.400,201.338 258.400 C 200.776 258.400,200.400 258.638,200.400 258.992 C 200.400 259.318,199.905 259.704,199.300 259.849 C 198.695 259.994,197.878 260.447,197.484 260.856 C 197.091 261.265,196.493 261.600,196.156 261.600 C 195.819 261.600,195.264 261.879,194.923 262.220 C 194.582 262.560,193.789 262.942,193.161 263.068 C 192.532 263.194,191.811 263.546,191.557 263.852 C 191.304 264.157,190.411 264.517,189.573 264.651 C 188.735 264.785,187.958 265.133,187.846 265.425 C 187.734 265.717,186.958 266.079,186.121 266.230 C 185.284 266.381,184.373 266.684,184.096 266.905 C 183.819 267.125,182.752 267.462,181.726 267.653 C 180.700 267.845,179.577 268.247,179.230 268.547 C 178.884 268.847,177.652 269.199,176.493 269.328 C 175.335 269.458,173.990 269.842,173.504 270.182 C 172.956 270.566,171.748 270.800,170.310 270.800 C 168.761 270.800,167.504 271.064,166.504 271.600 C 165.358 272.215,164.248 272.400,161.714 272.400 C 159.491 272.400,157.860 272.628,156.708 273.100 C 155.187 273.723,153.378 273.800,140.200 273.800 C 127.022 273.800,125.213 273.723,123.692 273.100 C 122.512 272.616,120.899 272.400,118.476 272.400 C 115.759 272.400,114.616 272.220,113.400 271.600 C 112.333 271.056,111.041 270.800,109.364 270.800 C 107.708 270.800,106.741 270.611,106.421 270.225 C 106.159 269.909,104.922 269.524,103.672 269.369 C 102.422 269.215,100.773 268.753,100.006 268.344 C 99.239 267.935,98.154 267.600,97.595 267.600 C 97.036 267.600,96.223 267.356,95.789 267.057 C 95.355 266.758,94.316 266.388,93.479 266.235 C 92.642 266.081,91.865 265.714,91.752 265.419 C 91.639 265.124,90.738 264.762,89.750 264.613 C 88.762 264.465,87.861 264.104,87.749 263.811 C 87.637 263.518,86.945 263.166,86.212 263.029 C 85.480 262.891,84.660 262.514,84.391 262.189 C 84.122 261.865,83.564 261.600,83.151 261.600 C 82.738 261.600,82.040 261.240,81.600 260.800 C 81.160 260.360,80.558 260.000,80.262 260.000 C 79.966 260.000,79.398 259.640,79.000 259.200 C 78.602 258.760,77.945 258.400,77.541 258.400 C 77.137 258.400,76.582 258.040,76.307 257.600 C 76.032 257.160,75.519 256.800,75.166 256.800 C 74.813 256.800,74.198 256.440,73.800 256.000 C 73.402 255.560,72.840 255.200,72.552 255.200 C 72.264 255.200,71.835 254.840,71.600 254.400 C 71.365 253.960,71.016 253.600,70.824 253.600 C 70.063 253.600,62.000 246.129,62.000 245.423 C 62.000 245.178,61.640 244.670,61.200 244.293 C 60.413 243.619,60.143 242.390,60.667 241.867 C 61.202 241.332,62.406 241.620,62.893 242.400 M278.800 263.995 C 278.800 264.465,279.939 264.822,280.183 264.428 C 280.297 264.243,280.033 263.997,279.596 263.883 C 279.158 263.769,278.800 263.819,278.800 263.995 M277.406 265.590 C 277.091 266.100,277.746 266.404,278.353 266.029 C 278.754 265.781,278.731 265.659,278.246 265.473 C 277.905 265.342,277.527 265.395,277.406 265.590 M256.256 277.478 C 255.875 277.859,255.947 278.800,256.357 278.800 C 256.848 278.800,257.242 277.673,256.838 277.424 C 256.659 277.313,256.396 277.337,256.256 277.478 M252.264 279.377 C 252.138 279.706,252.235 280.098,252.479 280.249 C 252.769 280.428,252.809 280.339,252.596 279.994 C 252.360 279.611,252.450 279.534,252.922 279.715 C 253.281 279.852,253.699 279.748,253.851 279.483 C 254.004 279.217,253.981 279.133,253.801 279.297 C 253.621 279.460,253.253 279.410,252.984 279.186 C 252.638 278.900,252.426 278.956,252.264 279.377 M160.246 296.575 C 160.367 296.891,160.736 297.046,161.067 296.919 C 161.555 296.732,161.568 296.626,161.134 296.350 C 160.336 295.845,159.998 295.930,160.246 296.575 M168.032 296.561 C 167.592 297.091,167.382 297.118,166.882 296.705 C 166.377 296.288,166.304 296.305,166.466 296.800 C 166.574 297.130,167.074 297.460,167.576 297.534 C 168.202 297.625,168.396 297.517,168.194 297.191 C 167.986 296.853,168.147 296.793,168.750 296.984 C 169.405 297.192,169.599 297.087,169.594 296.527 C 169.589 295.964,169.510 295.923,169.242 296.345 C 168.983 296.754,168.856 296.768,168.734 296.401 C 168.618 296.054,168.415 296.100,168.032 296.561 " stroke="none" fill="#f37c0c" fill-rule="evenodd"></path><path id="path4" d="M246.792 82.610 C 246.514 82.945,246.404 83.337,246.547 83.480 C 246.691 83.624,247.031 83.455,247.304 83.105 C 247.577 82.754,248.160 82.383,248.600 82.280 C 249.225 82.134,249.170 82.083,248.349 82.046 C 247.771 82.021,247.070 82.274,246.792 82.610 M240.138 84.217 C 239.778 85.155,240.167 85.266,240.719 84.382 C 241.028 83.887,241.054 83.600,240.791 83.600 C 240.562 83.600,240.268 83.878,240.138 84.217 M234.278 85.914 C 233.680 86.574,233.684 86.629,234.330 86.629 C 234.734 86.629,235.029 86.327,235.029 85.914 C 235.029 85.521,235.005 85.200,234.976 85.200 C 234.948 85.200,234.633 85.521,234.278 85.914 M225.200 88.800 C 224.870 89.013,224.780 89.193,225.000 89.200 C 225.220 89.207,225.132 89.382,224.805 89.588 C 224.335 89.886,224.395 89.951,225.088 89.898 C 225.571 89.862,225.885 89.752,225.786 89.653 C 225.688 89.554,225.807 89.232,226.052 88.937 C 226.569 88.315,226.074 88.235,225.200 88.800 M275.855 91.800 C 275.729 92.130,275.777 92.400,275.964 92.400 C 276.150 92.400,276.526 92.130,276.800 91.800 C 277.205 91.312,277.185 91.200,276.692 91.200 C 276.358 91.200,275.982 91.470,275.855 91.800 M217.192 92.005 C 216.734 92.288,216.712 92.472,217.090 92.850 C 217.468 93.228,217.631 93.185,217.836 92.650 C 218.171 91.779,217.937 91.545,217.192 92.005 M210.667 95.067 C 210.160 95.574,210.401 96.097,210.937 95.652 C 211.232 95.407,211.621 95.340,211.801 95.503 C 211.981 95.667,211.999 95.575,211.841 95.300 C 211.523 94.747,211.075 94.658,210.667 95.067 M271.800 99.200 C 271.261 99.432,271.196 99.555,271.600 99.578 C 272.133 99.608,272.133 99.655,271.600 100.000 C 271.223 100.244,271.181 100.390,271.486 100.394 C 271.753 100.397,272.165 100.040,272.400 99.600 C 272.635 99.160,272.777 98.813,272.714 98.828 C 272.651 98.844,272.240 99.011,271.800 99.200 M262.300 117.876 C 261.915 117.976,261.600 118.310,261.600 118.617 C 261.600 119.306,262.654 118.958,262.957 118.169 C 263.077 117.856,263.136 117.621,263.087 117.646 C 263.039 117.672,262.685 117.775,262.300 117.876 M331.200 122.000 C 330.542 122.658,329.867 122.800,327.400 122.800 C 324.667 122.800,324.400 122.871,324.400 123.600 C 324.400 124.302,324.133 124.400,322.214 124.400 C 320.461 124.400,319.946 124.554,319.614 125.175 C 319.363 125.642,318.683 125.999,317.899 126.075 C 317.122 126.150,316.640 126.401,316.700 126.700 C 316.755 126.975,316.474 127.200,316.075 127.200 C 315.677 127.200,314.964 127.560,314.492 128.000 C 314.020 128.440,313.453 128.800,313.232 128.800 C 313.011 128.800,312.118 129.520,311.247 130.400 C 310.376 131.280,309.469 132.000,309.231 132.000 C 308.994 132.000,308.800 132.360,308.800 132.800 C 308.800 133.333,308.533 133.600,308.000 133.600 C 307.467 133.600,307.200 133.867,307.200 134.400 C 307.200 134.933,306.933 135.200,306.400 135.200 C 305.867 135.200,305.600 135.467,305.600 136.000 C 305.600 136.533,305.333 136.800,304.800 136.800 C 304.267 136.800,304.000 137.067,304.000 137.600 C 304.000 138.133,303.733 138.400,303.200 138.400 C 302.667 138.400,302.400 138.667,302.400 139.200 C 302.400 139.733,302.133 140.000,301.600 140.000 C 301.067 140.000,300.800 140.267,300.800 140.800 C 300.800 141.240,300.575 141.607,300.300 141.615 C 299.808 141.629,297.600 144.770,297.600 145.456 C 297.600 145.649,297.240 146.032,296.800 146.307 C 296.360 146.582,296.000 147.002,296.000 147.240 C 296.000 147.479,295.640 148.131,295.200 148.691 C 294.760 149.250,294.400 150.024,294.400 150.411 C 294.400 150.798,294.156 151.208,293.857 151.323 C 293.558 151.437,293.203 152.087,293.067 152.766 C 292.921 153.497,292.572 154.000,292.210 154.000 C 291.768 154.000,291.600 154.428,291.600 155.553 C 291.600 156.770,291.427 157.152,290.800 157.316 C 290.217 157.468,290.000 157.862,290.000 158.763 C 290.000 159.467,289.655 160.345,289.200 160.800 C 288.675 161.325,288.400 162.133,288.400 163.153 C 288.400 164.370,288.227 164.752,287.600 164.916 C 286.762 165.135,286.514 166.176,287.200 166.600 C 287.420 166.736,287.600 167.154,287.600 167.530 C 287.600 168.376,289.026 171.119,290.042 172.226 C 290.459 172.680,290.800 173.327,290.800 173.664 C 290.800 174.001,291.160 174.602,291.600 175.000 C 292.040 175.398,292.400 175.983,292.400 176.299 C 292.400 176.615,292.760 177.331,293.200 177.891 C 293.640 178.450,294.000 179.132,294.000 179.405 C 294.000 179.678,294.258 180.117,294.574 180.379 C 294.890 180.641,295.262 181.370,295.400 182.000 C 295.538 182.630,295.905 183.355,296.215 183.613 C 296.525 183.870,296.892 184.686,297.031 185.426 C 297.170 186.166,297.535 186.980,297.842 187.235 C 298.149 187.490,298.400 188.102,298.400 188.595 C 298.400 189.088,298.732 189.921,299.139 190.446 C 299.545 190.971,299.987 192.097,300.122 192.950 C 300.256 193.802,300.643 194.806,300.983 195.181 C 301.322 195.556,301.600 196.500,301.600 197.278 C 301.600 198.086,301.943 199.128,302.400 199.709 C 302.930 200.383,303.200 201.332,303.200 202.519 C 303.200 203.506,303.556 205.097,303.991 206.056 C 305.201 208.723,305.208 226.432,304.000 228.800 C 303.560 229.662,303.200 230.978,303.200 231.723 C 303.200 232.503,302.861 233.469,302.400 234.000 C 301.960 234.507,301.600 235.429,301.600 236.047 C 301.600 236.762,301.309 237.328,300.800 237.600 C 300.299 237.868,300.000 238.438,300.000 239.125 C 300.000 239.729,299.640 240.530,299.200 240.907 C 298.760 241.284,298.400 241.851,298.400 242.168 C 298.400 242.484,298.172 242.981,297.894 243.271 C 297.616 243.562,296.513 245.092,295.444 246.671 C 294.374 248.249,292.219 250.859,290.655 252.471 C 287.166 256.065,286.800 256.727,286.800 259.446 C 286.800 261.333,286.899 261.600,287.600 261.600 C 288.302 261.600,288.400 261.867,288.400 263.773 C 288.400 265.595,288.529 265.987,289.200 266.200 C 289.791 266.388,290.000 266.805,290.000 267.800 C 290.000 268.795,290.209 269.212,290.800 269.400 C 291.397 269.590,291.600 270.005,291.600 271.040 C 291.600 271.891,291.827 272.512,292.189 272.651 C 292.513 272.776,292.893 273.490,293.034 274.239 C 293.174 274.987,293.523 275.600,293.809 275.600 C 294.105 275.600,294.447 276.292,294.600 277.200 C 294.766 278.184,295.088 278.800,295.435 278.800 C 295.746 278.800,296.000 279.087,296.000 279.437 C 296.000 279.788,296.343 280.165,296.762 280.274 C 297.246 280.401,297.617 280.967,297.778 281.826 C 297.918 282.570,298.264 283.318,298.546 283.489 C 298.829 283.660,299.176 284.115,299.318 284.500 C 299.459 284.885,299.851 285.200,300.187 285.200 C 300.524 285.200,300.800 285.487,300.800 285.837 C 300.800 286.188,301.160 286.569,301.600 286.684 C 302.050 286.802,302.400 287.230,302.400 287.662 C 302.400 288.085,303.120 289.158,304.000 290.047 C 304.880 290.936,305.600 291.817,305.600 292.005 C 305.600 292.192,305.960 292.460,306.400 292.600 C 306.840 292.740,307.200 293.108,307.200 293.419 C 307.200 293.730,307.658 294.100,308.219 294.240 C 308.779 294.381,309.142 294.592,309.025 294.708 C 308.708 295.026,310.096 295.973,310.900 295.987 C 311.285 295.994,311.600 296.276,311.600 296.613 C 311.600 296.949,311.915 297.343,312.300 297.486 C 312.685 297.630,313.235 298.074,313.523 298.474 C 313.824 298.893,314.544 299.200,315.223 299.200 C 316.133 299.200,316.400 299.381,316.400 300.000 C 316.400 300.652,316.667 300.800,317.837 300.800 C 318.938 300.800,319.324 300.987,319.484 301.600 C 319.648 302.227,320.030 302.400,321.247 302.400 C 322.308 302.400,322.800 302.577,322.800 302.957 C 322.800 303.683,323.681 304.000,325.701 304.000 C 326.698 304.000,327.639 304.273,328.110 304.700 C 329.387 305.857,343.325 305.693,343.777 304.516 C 343.908 304.175,344.782 304.000,346.360 304.000 C 348.395 304.000,348.783 303.882,349.000 303.200 C 349.191 302.599,349.605 302.400,350.664 302.400 C 351.738 302.400,352.125 302.209,352.284 301.600 C 352.443 300.994,352.830 300.800,353.884 300.800 C 354.925 300.800,355.326 300.604,355.478 300.022 C 355.615 299.499,356.093 299.205,356.941 299.122 C 359.830 298.842,357.343 291.600,354.358 291.600 C 354.161 291.600,354.000 291.313,354.000 290.963 C 354.000 290.612,353.640 290.231,353.200 290.116 C 352.760 290.001,352.400 289.641,352.400 289.316 C 352.400 288.991,352.040 288.631,351.600 288.516 C 351.157 288.400,350.800 287.970,350.800 287.553 C 350.800 287.067,350.517 286.800,350.000 286.800 C 349.478 286.800,349.200 286.533,349.200 286.033 C 349.200 284.841,348.769 284.000,348.157 284.000 C 347.851 284.000,347.600 283.652,347.600 283.227 C 347.600 282.802,347.240 282.340,346.800 282.200 C 346.360 282.060,346.000 281.671,346.000 281.336 C 346.000 281.000,345.640 280.631,345.200 280.516 C 344.599 280.359,344.400 279.970,344.400 278.953 C 344.400 277.867,344.242 277.600,343.600 277.600 C 343.020 277.600,342.800 277.333,342.800 276.629 C 342.800 276.094,342.530 275.387,342.200 275.057 C 341.870 274.727,341.600 274.157,341.600 273.791 C 341.600 273.425,341.240 273.031,340.800 272.916 C 340.194 272.757,340.000 272.370,340.000 271.316 C 340.000 270.290,339.802 269.873,339.247 269.728 C 338.690 269.583,338.426 269.022,338.235 267.579 C 338.092 266.505,337.717 265.482,337.401 265.305 C 337.085 265.128,336.780 264.375,336.724 263.631 C 336.655 262.728,336.384 262.216,335.910 262.092 C 335.384 261.955,335.200 261.505,335.200 260.353 C 335.200 259.333,334.925 258.525,334.400 258.000 C 333.932 257.532,333.598 256.661,333.595 255.900 C 333.587 254.000,333.184 252.800,332.553 252.800 C 332.149 252.800,332.000 252.207,332.000 250.603 C 332.000 248.840,331.842 248.308,331.200 247.907 C 330.519 247.482,330.400 246.974,330.400 244.504 C 330.400 242.133,330.253 241.453,329.600 240.800 C 328.919 240.119,328.800 239.467,328.800 236.419 C 328.800 233.040,328.294 230.800,327.532 230.800 C 327.345 230.800,327.238 222.925,327.296 213.300 C 327.387 198.057,327.477 195.800,328.000 195.800 C 328.489 195.800,328.624 194.987,328.730 191.402 C 328.840 187.680,328.979 186.893,329.630 186.286 C 330.237 185.721,330.400 185.020,330.400 182.984 C 330.400 180.933,330.565 180.235,331.200 179.600 C 331.819 178.981,332.000 178.267,332.000 176.447 C 332.000 174.419,332.112 174.064,332.811 173.881 C 333.258 173.764,333.596 173.518,333.564 173.334 C 333.343 172.077,333.663 169.192,334.001 169.400 C 334.526 169.725,335.200 167.912,335.200 166.174 C 335.200 165.266,335.389 164.800,335.757 164.800 C 336.395 164.800,336.800 163.950,336.800 162.610 C 336.800 162.102,337.047 161.591,337.349 161.475 C 337.652 161.359,338.017 160.637,338.160 159.871 C 338.304 159.104,338.670 158.382,338.973 158.266 C 339.276 158.149,339.650 157.484,339.803 156.786 C 339.956 156.089,340.423 155.177,340.841 154.759 C 341.258 154.342,341.600 153.550,341.600 153.000 C 341.600 152.378,341.827 152.000,342.200 152.000 C 342.619 152.000,342.800 151.578,342.800 150.600 C 342.800 149.467,342.952 149.200,343.600 149.200 C 344.176 149.200,344.400 148.933,344.400 148.247 C 344.400 147.630,344.682 147.219,345.200 147.084 C 345.783 146.932,346.000 146.538,346.000 145.637 C 346.000 144.667,346.172 144.400,346.800 144.400 C 347.333 144.400,347.600 144.133,347.600 143.600 C 347.600 143.160,347.841 142.800,348.136 142.800 C 348.430 142.800,348.877 142.350,349.127 141.800 C 349.378 141.250,349.752 140.800,349.960 140.800 C 350.167 140.800,350.455 140.260,350.600 139.600 C 350.751 138.911,351.122 138.400,351.469 138.400 C 351.802 138.400,352.169 138.040,352.284 137.600 C 352.400 137.157,352.830 136.800,353.247 136.800 C 353.733 136.800,354.000 136.517,354.000 136.000 C 354.000 135.535,354.267 135.200,354.637 135.200 C 354.988 135.200,355.369 134.840,355.484 134.400 C 355.599 133.960,355.958 133.600,356.283 133.600 C 358.875 133.600,359.126 128.860,356.600 127.600 C 355.940 127.271,355.256 126.776,355.080 126.501 C 354.904 126.225,354.321 126.000,353.784 126.000 C 353.240 126.000,352.585 125.645,352.307 125.200 C 351.913 124.568,351.374 124.400,349.750 124.400 C 348.030 124.400,347.659 124.269,347.484 123.600 C 347.300 122.895,346.938 122.800,344.437 122.800 C 342.133 122.800,341.450 122.650,340.800 122.000 C 340.107 121.307,339.467 121.200,336.000 121.200 C 332.533 121.200,331.893 121.307,331.200 122.000 M277.200 153.400 C 277.200 153.730,277.492 154.000,277.849 154.000 C 278.380 154.000,278.408 153.891,278.000 153.400 C 277.726 153.070,277.434 152.800,277.351 152.800 C 277.268 152.800,277.200 153.070,277.200 153.400 M94.919 176.404 C 92.709 176.727,88.622 178.216,87.569 179.081 C 87.221 179.367,86.796 179.600,86.624 179.600 C 85.988 179.600,82.233 183.037,80.737 184.987 C 79.888 186.094,79.041 187.190,78.854 187.421 C 75.056 192.142,74.383 202.483,77.447 209.040 C 77.971 210.162,78.400 211.216,78.400 211.383 C 78.400 211.842,82.163 216.462,83.460 217.596 C 93.011 225.942,107.432 225.419,116.054 216.414 C 117.947 214.437,120.398 211.119,120.402 210.528 C 120.404 210.348,120.693 209.660,121.045 209.000 C 123.520 204.362,123.571 196.196,121.157 190.956 C 120.741 190.052,120.400 189.144,120.400 188.938 C 120.400 188.552,120.295 188.400,117.668 184.987 C 112.466 178.228,104.083 175.065,94.919 176.404 M167.520 176.398 C 163.226 176.949,158.878 179.271,155.067 183.049 C 153.930 184.176,152.778 185.436,152.507 185.849 C 152.236 186.262,151.561 187.283,151.007 188.118 C 150.453 188.953,150.000 189.875,150.000 190.167 C 150.000 190.459,149.607 191.576,149.128 192.649 C 147.851 195.505,147.855 204.063,149.135 206.951 C 149.611 208.024,150.000 209.142,150.000 209.435 C 150.000 211.719,157.143 219.197,160.982 220.931 C 169.396 224.733,179.805 224.095,185.062 219.455 C 185.346 219.205,186.263 218.469,187.100 217.820 C 190.013 215.560,192.005 212.587,194.616 206.600 C 198.328 198.091,192.444 183.527,183.529 179.157 C 182.358 178.583,180.751 177.803,179.958 177.425 C 177.429 176.218,172.253 175.790,167.520 176.398 M105.989 177.700 C 106.533 178.085,107.288 178.400,107.668 178.400 C 110.526 178.400,120.000 187.032,120.000 189.636 C 120.000 189.854,120.400 190.790,120.888 191.716 C 121.698 193.252,121.776 193.961,121.776 199.800 C 121.776 205.639,121.698 206.348,120.888 207.884 C 120.400 208.810,120.000 209.746,120.000 209.964 C 120.000 210.530,117.898 213.549,116.333 215.233 C 112.347 219.518,108.591 221.425,101.300 222.865 C 97.480 223.619,90.474 221.730,85.842 218.696 C 83.279 217.018,78.400 211.028,78.400 209.560 C 78.400 209.287,78.140 208.776,77.823 208.426 C 75.925 206.329,75.899 193.300,77.789 191.213 C 78.125 190.841,78.400 190.313,78.400 190.040 C 78.400 187.148,87.631 178.400,90.682 178.400 C 91.089 178.400,91.777 178.152,92.211 177.848 C 94.049 176.562,104.227 176.453,105.989 177.700 M177.800 177.442 C 178.680 177.775,180.009 178.233,180.753 178.458 C 181.496 178.683,182.306 179.036,182.553 179.244 C 182.799 179.451,183.900 180.198,185.000 180.904 C 186.100 181.609,187.608 182.820,188.351 183.593 C 190.580 185.914,193.600 191.005,193.600 192.441 C 193.600 192.880,193.899 193.816,194.264 194.520 C 195.195 196.315,195.194 203.297,194.262 205.000 C 193.901 205.660,193.604 206.671,193.602 207.246 C 193.601 207.821,193.265 208.721,192.855 209.246 C 192.445 209.771,191.972 210.642,191.802 211.181 C 191.633 211.721,191.293 212.371,191.047 212.626 C 190.801 212.880,190.084 213.745,189.454 214.547 C 186.067 218.854,181.563 221.249,173.831 222.853 C 167.604 224.145,156.159 218.918,153.350 213.500 C 153.036 212.895,152.644 212.400,152.477 212.400 C 152.311 212.400,151.962 211.905,151.702 211.300 C 151.442 210.695,151.058 209.930,150.848 209.600 C 148.186 205.410,148.174 194.413,150.827 190.000 C 151.026 189.670,151.433 188.860,151.732 188.200 C 152.031 187.540,152.574 186.753,152.938 186.451 C 153.302 186.149,153.600 185.743,153.600 185.549 C 153.600 185.089,157.138 181.600,157.604 181.600 C 157.800 181.600,158.104 181.365,158.280 181.078 C 158.622 180.519,161.549 178.909,163.200 178.371 C 163.750 178.192,164.920 177.773,165.800 177.440 C 167.992 176.611,175.613 176.612,177.800 177.442 M102.000 181.127 C 97.960 182.229,96.266 189.028,99.234 192.226 C 99.655 192.680,100.000 193.189,100.000 193.357 C 100.000 193.525,100.713 194.327,101.584 195.140 C 106.870 200.069,114.193 200.125,116.235 195.251 C 119.009 188.630,109.410 179.106,102.000 181.127 M174.800 181.134 C 167.540 183.067,169.646 193.737,178.075 197.724 C 185.924 201.436,192.210 195.547,188.240 188.200 C 187.087 186.065,184.024 182.981,182.639 182.560 C 182.178 182.420,181.530 182.076,181.200 181.796 C 180.491 181.193,176.231 180.753,174.800 181.134 M108.483 182.598 C 110.508 183.525,114.000 186.296,114.000 186.975 C 114.000 187.140,114.351 187.720,114.780 188.265 C 117.772 192.069,115.488 197.859,110.818 198.308 C 107.472 198.629,100.083 194.475,100.012 192.231 C 100.005 192.029,99.731 191.566,99.402 191.202 C 98.652 190.374,98.213 187.320,98.570 185.418 C 99.225 181.925,104.029 180.559,108.483 182.598 M180.211 182.146 C 180.645 182.446,181.424 182.825,181.943 182.987 C 187.346 184.674,190.620 192.980,187.222 196.378 C 181.406 202.194,167.349 191.634,171.455 184.532 C 172.950 181.946,177.953 180.583,180.211 182.146 M61.317 242.443 C 59.911 243.849,72.906 255.912,78.549 258.438 C 79.017 258.648,80.120 259.248,81.000 259.771 C 81.880 260.295,83.590 261.194,84.800 261.768 C 86.010 262.342,87.666 263.170,88.479 263.606 C 89.293 264.043,90.269 264.400,90.648 264.400 C 91.027 264.400,91.621 264.639,91.969 264.932 C 92.316 265.224,94.220 265.963,96.200 266.574 C 98.180 267.184,100.404 267.941,101.142 268.255 C 101.879 268.570,103.319 268.936,104.342 269.070 C 105.364 269.203,106.690 269.559,107.290 269.861 C 107.889 270.163,109.509 270.518,110.890 270.649 C 112.270 270.780,114.120 271.117,115.000 271.396 C 115.880 271.676,118.220 272.030,120.200 272.182 C 122.180 272.335,125.309 272.716,127.152 273.030 C 130.978 273.680,148.337 273.784,152.000 273.178 C 153.210 272.978,156.180 272.628,158.600 272.400 C 161.020 272.173,163.990 271.728,165.200 271.411 C 166.410 271.094,168.373 270.727,169.563 270.596 C 170.752 270.464,172.192 270.119,172.763 269.830 C 173.333 269.541,174.685 269.175,175.767 269.017 C 176.848 268.860,178.108 268.494,178.567 268.204 C 179.025 267.914,180.164 267.554,181.098 267.404 C 182.032 267.253,182.886 266.984,182.997 266.805 C 183.107 266.627,184.089 266.266,185.179 266.005 C 186.269 265.744,187.371 265.276,187.629 264.965 C 187.887 264.654,188.502 264.400,188.995 264.400 C 189.488 264.400,190.350 264.040,190.909 263.600 C 191.469 263.160,192.108 262.800,192.330 262.800 C 192.809 262.800,196.911 260.791,197.200 260.415 C 197.310 260.272,197.985 259.918,198.700 259.629 C 199.415 259.340,200.000 258.957,200.000 258.778 C 200.000 258.600,200.379 258.334,200.841 258.187 C 201.647 257.931,203.573 256.731,204.813 255.711 C 205.136 255.446,206.863 254.074,208.650 252.663 C 211.795 250.180,212.722 249.312,215.510 246.242 C 217.789 243.732,217.960 240.898,215.701 243.069 C 213.329 245.349,208.769 249.047,206.400 250.611 C 205.410 251.265,204.539 251.939,204.463 252.110 C 204.388 252.280,203.758 252.684,203.063 253.007 C 202.369 253.331,201.080 254.039,200.200 254.582 C 197.447 256.279,188.014 260.800,187.223 260.800 C 186.989 260.800,186.125 261.160,185.304 261.600 C 184.484 262.040,183.354 262.400,182.795 262.400 C 182.236 262.400,181.423 262.647,180.989 262.950 C 180.555 263.252,179.390 263.634,178.400 263.797 C 177.410 263.961,176.150 264.325,175.600 264.606 C 175.049 264.887,173.519 265.249,172.200 265.410 C 170.880 265.571,169.170 265.935,168.400 266.219 C 167.630 266.502,165.570 266.850,163.823 266.991 C 162.075 267.132,159.465 267.533,158.023 267.883 C 154.128 268.827,126.233 268.817,122.324 267.871 C 120.853 267.514,118.153 267.112,116.324 266.978 C 114.496 266.843,112.370 266.501,111.600 266.218 C 110.830 265.935,109.120 265.571,107.800 265.410 C 106.481 265.249,104.951 264.887,104.400 264.606 C 103.850 264.325,102.590 263.962,101.600 263.800 C 100.610 263.638,99.350 263.281,98.800 263.006 C 98.250 262.732,97.089 262.378,96.220 262.220 C 95.352 262.063,94.277 261.679,93.831 261.367 C 93.386 261.055,92.744 260.800,92.405 260.800 C 92.066 260.800,91.116 260.440,90.296 260.000 C 89.475 259.560,88.599 259.200,88.350 259.200 C 87.803 259.200,80.284 255.573,80.000 255.172 C 79.890 255.017,79.170 254.595,78.400 254.234 C 76.469 253.330,75.334 252.646,74.471 251.864 C 74.067 251.499,73.600 251.200,73.431 251.200 C 73.263 251.200,72.236 250.525,71.149 249.700 C 67.799 247.158,64.620 244.645,64.200 244.208 C 62.659 242.604,61.727 242.033,61.317 242.443 M67.125 247.975 C 67.225 248.275,67.075 248.425,66.775 248.325 C 66.486 248.229,66.171 247.914,66.075 247.625 C 65.975 247.325,66.125 247.175,66.425 247.275 C 66.714 247.371,67.029 247.686,67.125 247.975 M212.570 247.552 C 212.902 248.089,206.886 253.337,202.640 256.214 C 199.299 258.477,194.150 261.287,190.200 263.002 C 189.540 263.289,188.190 263.890,187.200 264.338 C 186.210 264.786,184.860 265.279,184.200 265.432 C 183.540 265.585,182.640 265.904,182.200 266.140 C 181.332 266.605,177.521 267.730,173.975 268.568 C 172.752 268.857,171.132 269.292,170.375 269.535 C 160.688 272.643,129.322 273.514,117.600 270.999 C 116.170 270.693,113.952 270.328,112.671 270.188 C 111.391 270.049,109.771 269.702,109.071 269.417 C 108.372 269.132,106.900 268.769,105.800 268.610 C 104.700 268.451,103.452 268.135,103.027 267.908 C 102.602 267.680,101.342 267.261,100.227 266.975 C 97.736 266.338,94.600 265.301,93.000 264.586 C 92.340 264.291,90.900 263.667,89.800 263.200 C 85.002 261.161,77.108 256.820,74.049 254.537 C 69.246 250.954,67.092 249.041,67.454 248.679 C 67.879 248.254,68.179 248.336,69.025 249.108 C 70.162 250.146,76.447 254.259,77.820 254.864 C 78.469 255.150,79.090 255.485,79.200 255.610 C 79.393 255.828,85.041 258.606,88.844 260.353 C 89.858 260.819,90.943 261.200,91.255 261.200 C 91.567 261.200,92.186 261.455,92.631 261.767 C 93.077 262.079,94.152 262.459,95.020 262.612 C 95.889 262.765,96.992 263.135,97.472 263.436 C 97.951 263.736,99.121 264.101,100.072 264.246 C 101.022 264.392,102.250 264.735,102.800 265.008 C 103.350 265.282,104.610 265.633,105.600 265.788 C 106.590 265.944,108.300 266.315,109.400 266.614 C 110.500 266.912,112.480 267.276,113.800 267.422 C 115.120 267.569,117.280 267.929,118.600 268.224 C 125.708 269.810,155.517 269.799,161.743 268.208 C 162.874 267.919,164.970 267.551,166.400 267.391 C 167.830 267.231,169.810 266.854,170.800 266.554 C 171.790 266.254,173.050 265.999,173.600 265.987 C 174.150 265.975,175.320 265.692,176.200 265.358 C 177.080 265.024,178.700 264.505,179.800 264.204 C 182.910 263.352,185.698 262.391,186.862 261.768 C 187.446 261.456,188.138 261.200,188.401 261.200 C 188.864 261.200,195.189 258.343,196.400 257.587 C 196.730 257.381,197.624 256.932,198.386 256.590 C 199.148 256.249,199.868 255.832,199.986 255.664 C 200.104 255.496,201.190 254.851,202.400 254.230 C 203.610 253.609,204.744 252.853,204.920 252.550 C 205.096 252.248,205.430 252.000,205.662 252.000 C 205.894 252.000,206.619 251.550,207.273 251.000 C 207.927 250.450,208.718 250.000,209.031 250.000 C 209.344 250.000,209.600 249.816,209.600 249.590 C 209.600 249.365,210.050 249.009,210.600 248.800 C 211.150 248.591,211.600 248.145,211.600 247.810 C 211.600 247.148,212.219 246.984,212.570 247.552 M244.000 282.362 C 243.670 282.548,242.560 282.822,241.533 282.970 C 240.506 283.118,239.449 283.500,239.184 283.820 C 238.919 284.139,238.028 284.400,237.205 284.400 C 236.314 284.400,235.296 284.724,234.691 285.200 C 234.065 285.692,233.068 286.000,232.099 286.000 C 231.032 286.000,230.290 286.258,229.800 286.800 C 229.257 287.400,228.566 287.601,227.038 287.603 C 225.677 287.604,224.601 287.869,223.800 288.400 C 223.054 288.894,221.919 289.197,220.800 289.200 C 219.681 289.203,218.546 289.506,217.800 290.000 C 216.923 290.581,215.922 290.795,214.080 290.797 C 212.517 290.799,211.074 291.052,210.280 291.464 C 209.572 291.832,207.660 292.212,206.000 292.316 C 204.350 292.418,202.471 292.772,201.825 293.100 C 201.070 293.484,199.067 293.757,196.226 293.861 C 190.993 294.054,188.400 294.973,188.400 296.636 C 188.400 297.333,188.621 297.600,189.200 297.600 C 189.733 297.600,190.000 297.867,190.000 298.400 C 190.000 299.045,190.267 299.200,191.373 299.200 C 192.395 299.200,192.811 299.405,193.000 300.000 C 193.140 300.440,193.581 300.800,193.980 300.800 C 194.380 300.800,194.801 301.160,194.916 301.600 C 195.067 302.178,195.462 302.400,196.336 302.400 C 197.195 302.400,197.620 302.632,197.800 303.200 C 197.989 303.795,198.405 304.000,199.427 304.000 C 200.376 304.000,200.800 304.184,200.800 304.595 C 200.800 304.978,201.358 305.280,202.365 305.441 C 203.431 305.611,203.993 305.932,204.128 306.446 C 204.275 307.008,204.690 307.200,205.763 307.200 C 206.774 307.200,207.200 307.378,207.200 307.800 C 207.200 308.233,207.644 308.400,208.800 308.400 C 210.133 308.400,210.400 308.533,210.400 309.200 C 210.400 309.867,210.667 310.000,212.000 310.000 C 213.096 310.000,213.600 310.174,213.600 310.553 C 213.600 311.178,214.797 311.586,216.653 311.595 C 217.568 311.599,217.963 311.816,218.116 312.400 C 218.293 313.077,218.662 313.200,220.516 313.200 C 222.370 313.200,222.739 313.323,222.916 314.000 C 223.093 314.677,223.462 314.800,225.316 314.800 C 227.170 314.800,227.539 314.923,227.716 315.600 C 227.891 316.270,228.262 316.400,229.999 316.400 C 231.468 316.400,232.371 316.634,233.091 317.200 C 233.899 317.836,234.714 318.000,237.054 318.000 C 238.674 318.000,240.000 318.162,240.000 318.361 C 240.000 319.551,260.346 320.299,262.426 319.186 C 263.566 318.576,263.545 315.215,262.400 314.916 C 261.960 314.801,261.600 314.382,261.600 313.986 C 261.600 312.838,261.160 312.000,260.557 312.000 C 260.251 312.000,260.000 311.646,260.000 311.214 C 260.000 310.782,259.640 310.235,259.200 310.000 C 258.676 309.720,258.400 309.162,258.400 308.386 C 258.400 307.598,258.198 307.200,257.800 307.200 C 257.427 307.200,257.200 306.822,257.200 306.200 C 257.200 305.650,256.834 304.834,256.387 304.387 C 255.941 303.941,255.465 303.025,255.331 302.353 C 255.196 301.681,254.842 301.037,254.543 300.923 C 254.244 300.808,254.000 300.282,254.000 299.753 C 254.000 299.225,253.640 298.484,253.200 298.107 C 252.760 297.730,252.400 297.117,252.400 296.744 C 252.400 295.635,251.952 294.800,251.357 294.800 C 250.974 294.800,250.800 294.301,250.800 293.200 C 250.800 291.867,250.667 291.600,250.000 291.600 C 249.339 291.600,249.200 291.333,249.200 290.062 C 249.200 289.032,248.936 288.285,248.400 287.800 C 247.869 287.319,247.600 286.568,247.600 285.565 C 247.600 284.405,247.414 283.995,246.800 283.800 C 246.360 283.660,246.000 283.198,246.000 282.773 C 246.000 281.955,245.064 281.763,244.000 282.362 M155.855 296.600 C 156.103 297.246,156.119 297.253,157.562 297.399 L 158.524 297.497 157.562 296.757 C 156.394 295.859,155.541 295.781,155.855 296.600 " stroke="none" fill="#995d1b" fill-rule="evenodd"></path></g></svg>